<?xml version="1.0" encoding="UTF-8" standalone="no"?>
<!-- Created with Inkscape (http://www.inkscape.org/) -->

<svg
   xmlns:dc="http://purl.org/dc/elements/1.1/"
   xmlns:cc="http://creativecommons.org/ns#"
   xmlns:rdf="http://www.w3.org/1999/02/22-rdf-syntax-ns#"
   xmlns:svg="http://www.w3.org/2000/svg"
   xmlns="http://www.w3.org/2000/svg"
   xmlns:xlink="http://www.w3.org/1999/xlink"
   xmlns:sodipodi="http://sodipodi.sourceforge.net/DTD/sodipodi-0.dtd"
   xmlns:inkscape="http://www.inkscape.org/namespaces/inkscape"
   id="svg2"
   sodipodi:docname="1325087769.svg"
   inkscape:export-filename="C:\Users\Gero\Documents\Inkscape\Vorlagen\princess.png"
   viewBox="0 0 478.19 694.76"
   inkscape:export-xdpi="87.20462"
   version="1.1"
   inkscape:export-ydpi="87.20462"
   inkscape:version="0.91 r13725">
  <title
     id="title3716">princess</title>
  <defs
     id="defs4">
    <filter
       id="filter4173-4"
       color-interpolation-filters="sRGB"
       width="1.2704"
       y="-.15342"
       x="-.13518"
       height="1.3068"
       inkscape:collect="always">
      <feGaussianBlur
         id="feGaussianBlur4175-5"
         stdDeviation="7.5104962"
         inkscape:collect="always" />
    </filter>
    <filter
       id="filter4173-4-2"
       color-interpolation-filters="sRGB"
       width="1.2704"
       y="-.15342"
       x="-.13518"
       height="1.3068"
       inkscape:collect="always">
      <feGaussianBlur
         id="feGaussianBlur4175-5-3"
         stdDeviation="7.5104962"
         inkscape:collect="always" />
    </filter>
    <filter
       id="filter9164"
       inkscape:menu="Materials"
       height="1.5"
       width="1.5"
       y="-.25"
       x="-.25"
       inkscape:menu-tooltip="3D warped marble texture"
       inkscape:label="3D marble"
       color-interpolation-filters="sRGB">
      <feGaussianBlur
         id="feGaussianBlur9166"
         stdDeviation="13"
         result="result8" />
      <feTurbulence
         id="feTurbulence9168"
         baseFrequency="0.01 0.01"
         seed="50"
         result="result7"
         numOctaves="7"
         type="turbulence" />
      <feColorMatrix
         id="feColorMatrix9170"
         values="1 0 0 0 0 0 1 0 0 0 0 0 1 0 0 0 0 0 1.4 0 "
         result="result5" />
      <feComposite
         id="feComposite9172"
         operator="in"
         result="result6"
         in2="result8"
         in="result5" />
      <feDisplacementMap
         id="feDisplacementMap9174"
         scale="100"
         yChannelSelector="A"
         in2="result6"
         result="result4"
         xChannelSelector="A"
         in="result5" />
      <feFlood
         id="feFlood9176"
         in="result4"
         result="result9"
         flood-color="rgb(224,224,224)" />
      <feComposite
         id="feComposite9178"
         operator="atop"
         result="result2"
         in2="result4" />
      <feComposite
         id="feComposite9180"
         operator="atop"
         result="result9"
         in2="SourceGraphic"
         in="result2" />
      <feBlend
         id="feBlend9182"
         mode="darken"
         in2="result9"
         result="fbSourceGraphic" />
      <feGaussianBlur
         id="feGaussianBlur9184"
         stdDeviation="5"
         result="result0"
         in="fbSourceGraphic" />
      <feSpecularLighting
         id="feSpecularLighting9186"
         lighting-color="#ffffff"
         specularConstant="0.80000001"
         result="result1"
         specularExponent="30"
         in="result0"
         surfaceScale="8">
        <feDistantLight
           id="feDistantLight9188"
           elevation="55"
           azimuth="235" />
      </feSpecularLighting>
      <feComposite
         id="feComposite9190"
         operator="in"
         result="result2"
         in2="fbSourceGraphic"
         in="result1" />
      <feComposite
         id="feComposite9192"
         in="fbSourceGraphic"
         in2="result2"
         k3="1"
         k2="1"
         k1="0"
         result="result4"
         k4="0"
         operator="arithmetic" />
    </filter>
    <filter
       id="filter7067"
       inkscape:menu="Bevels"
       height="1.5"
       width="1.5"
       y="-.25"
       x="-.25"
       inkscape:menu-tooltip="Neon light effect"
       inkscape:label="Neon"
       color-interpolation-filters="sRGB">
      <feGaussianBlur
         id="feGaussianBlur7069"
         stdDeviation="19.954457831325303"
         result="result1" />
      <feComposite
         id="feComposite7071"
         operator="in"
         result="result4"
         in2="result1"
         in="result1" />
      <feGaussianBlur
         id="feGaussianBlur7073"
         stdDeviation="7"
         result="result6"
         in="result4" />
      <feComposite
         id="feComposite7075"
         operator="over"
         result="result8"
         in2="result4"
         in="result6" />
      <feComposite
         id="feComposite7077"
         operator="in"
         result="fbSourceGraphic"
         in2="result8"
         in="result6" />
      <feSpecularLighting
         id="feSpecularLighting7079"
         lighting-color="#ffffff"
         specularConstant="2"
         result="result1"
         specularExponent="45"
         in="fbSourceGraphic"
         surfaceScale="2.5">
        <fePointLight
           id="fePointLight7081"
           y="-10000"
           x="-5000"
           z="20000" />
      </feSpecularLighting>
      <feComposite
         id="feComposite7083"
         operator="in"
         result="result2"
         in2="fbSourceGraphic"
         in="result1" />
      <feComposite
         id="feComposite7085"
         k4="0"
         in2="result2"
         k3="1.5"
         k2="1.2"
         k1="0"
         result="result4"
         in="fbSourceGraphic"
         operator="arithmetic" />
      <feComposite
         id="feComposite7087"
         operator="over"
         result="result9"
         in2="result4" />
      <feBlend
         id="feBlend7089"
         mode="screen"
         in2="result9" />
    </filter>
    <filter
       id="filter3024"
       inkscape:menu="Materials"
       height="1.5"
       width="1.5"
       y="-.25"
       x="-.25"
       inkscape:menu-tooltip="3D warped marble texture"
       inkscape:label="3D marble"
       color-interpolation-filters="sRGB">
      <feGaussianBlur
         id="feGaussianBlur3026"
         stdDeviation="20"
         result="result8" />
      <feTurbulence
         id="feTurbulence3028"
         baseFrequency="0.01 0.01"
         seed="50"
         result="result7"
         numOctaves="7"
         type="turbulence" />
      <feColorMatrix
         id="feColorMatrix3030"
         values="1 0 0 0 0 0 1 0 0 0 0 0 1 0 0 0 0 0 1.4 0 "
         result="result5" />
      <feComposite
         id="feComposite3032"
         operator="in"
         result="result6"
         in2="result8"
         in="result5" />
      <feDisplacementMap
         id="feDisplacementMap3034"
         scale="100"
         yChannelSelector="A"
         in2="result6"
         result="result4"
         xChannelSelector="A"
         in="result5" />
      <feFlood
         id="feFlood3036"
         in="result4"
         result="result9"
         flood-color="rgb(224,224,224)" />
      <feComposite
         id="feComposite3038"
         operator="atop"
         result="result2"
         in2="result4" />
      <feComposite
         id="feComposite3040"
         operator="atop"
         result="result9"
         in2="SourceGraphic"
         in="result2" />
      <feBlend
         id="feBlend3042"
         mode="darken"
         in2="result9"
         result="fbSourceGraphic" />
      <feGaussianBlur
         id="feGaussianBlur3044"
         stdDeviation="5"
         result="result0"
         in="fbSourceGraphic" />
      <feSpecularLighting
         id="feSpecularLighting3046"
         lighting-color="#ffffff"
         specularConstant="0.80000001"
         result="result1"
         specularExponent="30"
         in="result0"
         surfaceScale="8">
        <feDistantLight
           id="feDistantLight3048"
           elevation="55"
           azimuth="235" />
      </feSpecularLighting>
      <feComposite
         id="feComposite3050"
         operator="in"
         result="result2"
         in2="fbSourceGraphic"
         in="result1" />
      <feComposite
         id="feComposite3052"
         in="fbSourceGraphic"
         in2="result2"
         k3="1"
         k2="1"
         k1="0"
         result="result4"
         k4="0"
         operator="arithmetic" />
    </filter>
    <linearGradient
       id="linearGradient7644"
       inkscape:collect="always">
      <stop
         id="stop7646"
         style="stop-color:#ffd5f6"
         offset="0" />
      <stop
         id="stop7652"
         style="stop-color:#ff55dd"
         offset=".54728" />
      <stop
         id="stop7648"
         style="stop-color:#800066"
         offset="1" />
    </linearGradient>
    <filter
       id="filter5567"
       inkscape:collect="always">
      <feGaussianBlur
         id="feGaussianBlur5569"
         stdDeviation="0.12677713"
         inkscape:collect="always" />
    </filter>
    <filter
       id="filter5571"
       inkscape:collect="always">
      <feGaussianBlur
         id="feGaussianBlur5573"
         stdDeviation="0.1248086"
         inkscape:collect="always" />
    </filter>
    <radialGradient
       id="radialGradient5856"
       gradientUnits="userSpaceOnUse"
       cy="88.162"
       cx="356.33"
       gradientTransform="matrix(1 0 0 1.047 0 -4.1458)"
       r="5.3703"
       inkscape:collect="always">
      <stop
         id="stop6159"
         style="stop-color:#ebeadc"
         offset="0" />
      <stop
         id="stop5866"
         style="stop-color:#f5f4ed"
         offset=".25" />
      <stop
         id="stop5864"
         style="stop-color:#ffffff"
         offset=".5" />
      <stop
         id="stop6161"
         style="stop-color:#ffffff"
         offset="1" />
    </radialGradient>
    <filter
       id="filter5884"
       inkscape:collect="always">
      <feGaussianBlur
         id="feGaussianBlur5886"
         stdDeviation="0.16285263"
         inkscape:collect="always" />
    </filter>
    <filter
       id="filter5884-8"
       color-interpolation-filters="sRGB"
       inkscape:collect="always">
      <feGaussianBlur
         id="feGaussianBlur5886-2"
         stdDeviation="0.16285263"
         inkscape:collect="always" />
    </filter>
    <filter
       id="filter5884-8-6"
       color-interpolation-filters="sRGB"
       inkscape:collect="always">
      <feGaussianBlur
         id="feGaussianBlur5886-2-0"
         stdDeviation="0.16285263"
         inkscape:collect="always" />
    </filter>
    <filter
       id="filter5884-8-0"
       color-interpolation-filters="sRGB"
       inkscape:collect="always">
      <feGaussianBlur
         id="feGaussianBlur5886-2-1"
         stdDeviation="0.16285263"
         inkscape:collect="always" />
    </filter>
    <filter
       id="filter5884-8-5"
       color-interpolation-filters="sRGB"
       inkscape:collect="always">
      <feGaussianBlur
         id="feGaussianBlur5886-2-9"
         stdDeviation="0.16285263"
         inkscape:collect="always" />
    </filter>
    <filter
       id="filter5884-8-3"
       color-interpolation-filters="sRGB"
       inkscape:collect="always">
      <feGaussianBlur
         id="feGaussianBlur5886-2-8"
         stdDeviation="0.16285263"
         inkscape:collect="always" />
    </filter>
    <radialGradient
       inkscape:collect="always"
       xlink:href="#radialGradient5856"
       id="radialGradient4737"
       gradientUnits="userSpaceOnUse"
       gradientTransform="matrix(1,0,0,1.047,0,-4.1458)"
       cx="356.33"
       cy="88.162"
       r="5.3703" />
    <radialGradient
       inkscape:collect="always"
       xlink:href="#radialGradient5856"
       id="radialGradient4739"
       gradientUnits="userSpaceOnUse"
       gradientTransform="matrix(1,0,0,1.047,0,-4.1458)"
       cx="356.33"
       cy="88.162"
       r="5.3703" />
    <radialGradient
       inkscape:collect="always"
       xlink:href="#radialGradient5856"
       id="radialGradient4741"
       gradientUnits="userSpaceOnUse"
       gradientTransform="matrix(1,0,0,1.047,0,-4.1458)"
       cx="356.33"
       cy="88.162"
       r="5.3703" />
    <radialGradient
       inkscape:collect="always"
       xlink:href="#radialGradient5856"
       id="radialGradient4743"
       gradientUnits="userSpaceOnUse"
       gradientTransform="matrix(1,0,0,1.047,0,-4.1458)"
       cx="356.33"
       cy="88.162"
       r="5.3703" />
    <radialGradient
       inkscape:collect="always"
       xlink:href="#radialGradient5856"
       id="radialGradient4745"
       gradientUnits="userSpaceOnUse"
       gradientTransform="matrix(1,0,0,1.047,0,-4.1458)"
       cx="356.33"
       cy="88.162"
       r="5.3703" />
    <radialGradient
       inkscape:collect="always"
       xlink:href="#radialGradient5856"
       id="radialGradient4747"
       gradientUnits="userSpaceOnUse"
       gradientTransform="matrix(1,0,0,1.047,0,-4.1458)"
       cx="356.33"
       cy="88.162"
       r="5.3703" />
    <radialGradient
       inkscape:collect="always"
       xlink:href="#linearGradient7644"
       id="radialGradient4753"
       gradientUnits="userSpaceOnUse"
       gradientTransform="matrix(1.8165,-1.7973,0.70381,0.69862,-770.63,1202.6)"
       cx="602.79"
       cy="395.73"
       r="8.5041" />
    <radialGradient
       inkscape:collect="always"
       xlink:href="#linearGradient7644"
       id="radialGradient4755"
       gradientUnits="userSpaceOnUse"
       gradientTransform="matrix(1.644,-1.6266,0.63696,0.63226,-639.53,1125.3)"
       cx="602.79"
       cy="395.73"
       r="8.5041" />
  </defs>
  <sodipodi:namedview
     id="base"
     bordercolor="#666666"
     inkscape:pageshadow="2"
     inkscape:window-y="27"
     pagecolor="#ffffff"
     inkscape:window-height="687"
     inkscape:window-maximized="1"
     inkscape:zoom="0.49497475"
     inkscape:window-x="0"
     showgrid="false"
     borderopacity="1.0"
     inkscape:current-layer="layer2"
     inkscape:cx="-244.35104"
     inkscape:cy="280.14268"
     inkscape:window-width="1366"
     inkscape:pageopacity="0.0"
     inkscape:document-units="px" />
  <g
     id="layer2"
     style="opacity:.96902"
     inkscape:label="Réteg"
     inkscape:groupmode="layer"
     transform="translate(-214.12 -140.46)">
    <path
       id="path3919"
       sodipodi:nodetypes="cscscccccs"
       style="stroke:#000000;fill:#f4eed7"
       d="m562.73 507.13c1.5986 4.7048 17.163 29.298 24.318 36.378 5.0022 4.9502 11.346 7.2063 11.346 7.2063 3.9286 0.35714 19.541 28.707 19.389 45.056-0.1548 16.662-4.5457 15.321-6.8185 22.981l-64.145-18.94 1.2627-63.892c-4.616-20.133-11.762-37.736-17.678-56.569l26.608-3.6401c-3.4156-1.9999 4.573 28.054 5.7165 31.419z" />
    <path
       id="path3968"
       style="opacity:.3;fill:#552200"
       d="m554.15 497.53 5.5312 1.2812c-1.9704 3.5387-9.54 4.4697-14.5 6.8125 0.49201 2.3285 6.9436 1.9451 10.719 2.7812-12.393 0.001-14.303 0.93162-10.594 3.7812 1.5641 1.2016 11.75 0.375 11.75 0.375-1.9262 1.7045-5.9626 2.3847-9.9688 2.625l6.5625 21.25s-3.0212-0.10975-5.5625-0.3125v-0.21875c-2.74-11.93-6.36-22.96-10.09-33.9l16.156-4.4688z" />
    <path
       id="path3915"
       style="stroke:#000000;fill:#ed8dc8;fill-opacity:1"
       d="m459.93 517.5 34.875 15.125-12.375 35.188 83.438 2.2188-24.781-31.25l-20.71-11.78 9.625-6.4375c34.124 12.877 65.855 45.166 79.656 77.5 6.1575 26.748 15.725 38.015 24.281 59.656-1.4286 21.429 15.357 76.429 17.5 100l-11.375 1.3125c0.83887 6.3412 1.577 12.688 2.2188 19.062-7.4298 6.3894-9.049 15.295-26.25 17.688-8.3 1.1545-8.5905-2.4313-12.125-4.0312l-4.0625 5.5625c-8.7449-0.34648-19.684 1.5253-33.812 6.5625 1.3322 2.7295 4.0618 4.744-6.0625 7.0625-11.187 2.5618-21.739 6.8132-35.375 5.5625-8.5199-0.78145-8.342-4.9396-12.125-7.5938l-19.688 3.5312s4.0516 2.5422 2.0312 4.5625c-6.9311 6.9311-22.069 2.7435-32.844 3.0312-3.283-0.75761-5.5625-4.5625-5.5625-4.5625s-0.49572 5.0625-4.0312 5.0625c-27.871-2.2805-23.799-8.9546-34.344-13.625l2.5-18.344-2.5 9.75-96.969-15.656-43.438-26.781c4.0406-39.901 23.719-67.688 23.719-67.688 5.5558-18.183 29.315-74.743 57.094-87.875-0.50507-13.637 62.114-59.501 101.5-82.812zm155.38 132c2.9319 9.1103 5.6495 18.256 8.1562 27.438l-3.4688-18.5-4.6875-8.9375z" />
    <path
       id="path3913"
       sodipodi:nodetypes="ccccc"
       style="fill:#4f0000;fill-opacity:1"
       d="m575 584.51c-20.128 9.6811-59.465 19.285-97.679 7.6786l21.25-64.821h27.857l48.571 57.143z" />
    <path
       id="path3907"
       sodipodi:nodetypes="ccccc"
       style="fill:#782121"
       d="m562.5 493.79c0.9893 2.1429 4.3984 4.2857 1.0714 6.4286-11.34-2.0746-16.988 3.4321-25.714 5.7143l-1.0714-6.4286c8.5714-5.1918 17.143-8.1126 25.714-5.7143z" />
    <path
       id="path3905"
       sodipodi:nodetypes="ccccc"
       style="fill:#782121"
       d="m558.93 483.08c1.5663 2.5 4.3604 5 1.4286 7.5-10.397-1.3486-18.554 2.9006-27.143 6.0714l1.0714-8.5714c7.8043-3.3067 15.89-5.488 24.643-5z" />
    <path
       id="path3822"
       sodipodi:nodetypes="csscsscsscssccccccscscsccsccscscs"
       style="stroke:#000000;fill:#feff00"
       d="m469.54 179.59c17.189 11.871 63.512 5.6956 104.94 14.668 52.549 11.38 88.29 26.255 92.038 46.952 4.708 26-34.345 45.457-34.345 45.457 3.8629-13.499 12.661-25.58 9.5964-27.274-21.161-11.696-33.96 40.274-22.223 46.467 34.583 18.249 31.614 2.5768 18.183-10.102 0 0 21.297 10.541 29.294 21.718 11.344 15.854 17.87 25.618 1.0102 29.294-23.113 5.0405-59.599 2.5254-59.599 2.5254l-21.213 23.234c-13.086 14.332 9.3788 15.043 17.173 13.132 12.985-3.184 4.7854-12.804 7.0711-19.193 7.2481 9.5964 16.918 29.8-1.5152 43.437-33.037 4.0854-38.12-1.9947-57.074-3.0305l-194.96 57.57c-13.751 16.059-27.846 23.472-46.972 24.749 6.6562-8.6086 10.72-13.989 8.0812-25.254-23.065-4.0406-55.423-13.466-64.145-21.718-6.1891-5.8564-1.2268-18.487-1.0102-28.284 8.4179 5.5608 15.41 17.039 25.254 5.0508 6.644-8.091 3.69-15.079 0-23.234-7.2152 6.7104-22.053 4.0864-40.911 1.5152-13.983-1.9065-13.028-12.482 1.5152-67.175 10.808-10.035 20.885-20.617 36.871-26.769-4.7798 14.224-27.571 41.532 0.50508 38.891 9.5846-0.90162 19.145 7.797 25.254-21.213 0.14995-18.767 0.69556-37.402 7.0711-63.64 0 0-18.275-10.481-13.132-18.183 12.214-18.291 23.237-31.732 41.416-42.931-8.3032 12.323-7.2909 48.686 27.274 15.657l45.457-43.437c12.067-13.031 19.015-16.568 59.094 11.112z" />
    <path
       id="path5306-1-8"
       sodipodi:nodetypes="cccc"
       style="opacity:0.96901999;fill:#feff00;stroke:#000000;stroke-width:0.86448848px"
       inkscape:connector-curvature="0"
       d="m 553.84568,346.1154 c -11.38696,-20.59666 -14.23371,-26.90717 -13.61143,-42.14639 l -19.48246,-6.42912 c 3.82539,11.1909 16.99167,38.09806 33.09389,48.57491 z" />
    <path
       id="path3885"
       sodipodi:nodetypes="czzzcc"
       style="stroke:#000000;fill:#ed9bc8;fill-opacity:1"
       d="m505.91 399.8s12.522-14.819 29.294-10.607c16.773 4.2127 44.742 37.35 48.487 54.043 3.7453 16.693-6.4077 22.165-11.112 27.779-4.704 5.6144-48.992 18.688-48.992 18.688l-17.678-89.904z" />
    <path
       id="path4014"
       sodipodi:nodetypes="czssssscc"
       style="opacity:.5;fill:#2b1100"
       d="m623.13 670.02s9.4136 48.246 15.152 63.135c5.7387 14.888 10.043 8.6742 12.627 11.617 5.0234 5.721 5.8505 18.687 3.0304 25.759-9.407 23.59-21.244 11.651-23.739 9.0914-6.8328-7.0108-4.7582-13.365-6.0609-32.83-0.9041-13.509-1.2085-16.86-3.1731-30.483-2.1088-14.623-6.7137-39.239-11.474-54.37l13.637 8.0812z" />
    <path
       id="path3891"
       sodipodi:nodetypes="czssssscc"
       style="stroke:#000000;fill:#f4eed7"
       d="m627.13 670.02s9.4136 48.246 15.152 63.135c5.7387 14.888 10.043 8.6742 12.627 11.617 5.0234 5.721 5.8505 18.687 3.0304 25.759-9.407 23.59-21.244 11.651-23.739 9.0914-6.8328-7.0108-4.7582-13.365-6.0609-32.83-0.9041-13.509-1.2085-16.86-3.1731-30.483-2.1088-14.623-6.7137-39.239-11.474-54.37l13.637 8.0812z" />
    <path
       id="path4012"
       sodipodi:nodetypes="cccccscc"
       style="opacity:0.46;fill:#2b1100"
       d="m597.87 611.39c4.3254 25.864 12.329 42.013 25.759 44.447l8.5863-1.0102c6.0937 12.996 8.3621 22.168 9.0914 29.8-2.942 3.537-5.4896 8.6518-11.642-0.65302-13.329-10.239-31.939-10.978-41.391-38.743-3.3263-9.7711-5.423-23.641-8.5863-36.366l18.183 2.5254z" />
    <path
       id="path3889"
       sodipodi:nodetypes="cccscsscc"
       style="stroke:#000000;fill:#f4eed7"
       d="m601.87 607.39c4.3254 25.864 12.329 42.013 25.759 44.447l8.5863-1.0102c6.0937 12.996 14.275 24.151 9.0914 29.8l-7.6882 8.3771-3.954-9.0301c-10.481-8.5066-31.939-10.978-41.391-38.743-3.3263-9.7711-5.423-23.641-8.5863-36.366l18.183 2.5254z" />
    <path
       id="path4010"
       sodipodi:nodetypes="cssccccscc"
       style="opacity:.5;fill:#2b1100"
       d="m520.33 535.38c20.958 13.637 28.304 27.162 35.779 43.355 9.8021 21.234 18.12 42.244 35.469 40.347l18.845-2.0612c12.543 3.6649-5.0045-20.201-5.2735-25.082l-6.4286-0.71429 2.8572 5c-8.9049-2.0194-9.4559 5.9557-30.959-23.781-11-15.212-17.695-30.029-49.041-44.791l-1.2478 7.7272z" />
    <path
       id="path3887"
       sodipodi:nodetypes="cssccscsscc"
       style="stroke:#000000;fill:#f4eed7"
       d="m515 531.65c26.513 9.8486 35.628 24.89 43.102 41.082 9.8021 21.234 18.12 42.244 35.469 40.347l18.845-2.0612 2.6025 4.8218c9.5872-7.8399-1.7193-23.297-7.876-29.903-1.5603-1.6743-2.699-1.3132-3.75-0.17858 0.0284 1.3993 2.3725 4.4022-0.71428 4.4643-8.3402 0.1679-8.563 5.9557-30.067-23.781-11-15.212-17.695-30.029-49.041-44.791l-8.5714 10z" />
    <path
       id="path4000"
       style="opacity:.5;fill:#28170b"
       d="m571.09 465.22-4.2188 9.3438c-6.5823 3.127-17.265 6.8388-26.438 9.8438l-2.5625-6.3438 11.406 0.375c3.2681-1.2366 0.48365-3.9818 0.375-6.0625l5.7188 4.625c1.6518-0.65455 2.0802-6.136 2.8438-10.344l1.4375 8.9062 11.438-10.344z" />
    <path
       id="path3704"
       sodipodi:nodetypes="ccccc"
       style="opacity:.3;fill:#28170b"
       d="m529.12 388.44c-2.0303 31.5 13.306 65.05 33.844 87.844-14.434 6.0486-39.375 13.438-39.375 13.438l-17.688-89.906s9.5856-11.361 23.219-11.375z" />
    <path
       id="path3881"
       sodipodi:nodetypes="czzzcccc"
       style="fill:#590000;fill-opacity:1"
       d="m506.43 410.22c33.129 10.225 47.729 70.354 35 92.857s-18.571 33.571-18.571 33.571-6.2246 2.5571-16.429 0.71428-40-20.714-40-20.714c-13.571-19.094-27.143-32.14-40.714-47.857l-7.8571-65 88.571 6.4286z" />
    <path
       id="path3871"
       sodipodi:nodetypes="cccccszsc"
       style="stroke:#000000;fill:#cc509d"
       inkscape:connector-curvature="0"
       d="m520.81 395.51c10.581 33.39-11.409 34.446-17.93 52.023l0.50508-31.062-22.223 0.75762 21.213 29.042s-25.375-15.832-52.449-27.276c-12.722-5.378-21.553-18.181-23.817-24.241-2.2645-6.0606 8.5962-19.145 23.486-20.708 24.266-2.5475 57.639-2.3173 71.216 21.466z" />
    <path
       id="path3961"
       sodipodi:nodetypes="cssccc"
       style="opacity:.5;fill:#28170b"
       d="m507.68 434.33c10-16.429 10.025-26.784 3.0357-34.464-5.1535-5.663-24.344-25.405-59.643-16.429-23.088 5.8713 5.6258 24.41 9.4643 28.393l5.1786 2.6786 41.964 19.821z" />
    <path
       id="path3869"
       sodipodi:nodetypes="csccccscc"
       style="stroke:#000000;fill:#ffc69f"
       d="m497.15 367.01c-0.14244 12.373-2.4634 23.189 0.35714 37.679 1.3882 7.131 8.8598 6.8146 14.931 9.9694 0.69087 10.261-3.6813 17.19-7.0741 25.209l-2.3214 7.5c-7.6608-10.545-23.49-25.844-43.036-35.714 4.4455-2.2543 10.391-1.7226 11.786-9.6429 3.1566-17.927 0.39121-33.81-3.2143-50.714l28.571 15.714z" />
    <path
       id="path3931"
       style="opacity:0.5;fill:#a05a2c"
       d="m 471.85216,352.84594 7.45915,4.28154 15.02349,9.8758 c -0.0739,7.67051 -0.84791,14.75018 -0.86365,22.4708 -5.45563,-3.7753 -14.65582,-12.33699 -19.99587,-17.4394 -0.5369,-5.22962 -1.30394,-10.44384 -2.1985,-15.72026 l 0.5758,-3.46908 z"
       inkscape:connector-curvature="0" />
    <path
       id="path5306-1"
       sodipodi:nodetypes="cccc"
       style="opacity:0.96901999;fill:#feff00;stroke:#000000;stroke-width:0.91519976px"
       inkscape:connector-curvature="0"
       d="m 396.37457,366.29702 c 12.76218,-20.59666 15.95314,-26.90716 15.25465,-42.14639 l 21.83507,-6.42912 c -4.28729,11.1909 -19.04361,38.09807 -37.09056,48.57491 z" />
    <path
       id="path5306-3"
       sodipodi:nodetypes="cccc"
       style="opacity:0.96901999;fill:#feff00;stroke:#000000;stroke-width:0.91519976"
       inkscape:connector-curvature="0"
       d="m 352.64749,333.97442 c 33.40545,-12.64702 81.32182,-54.6604 74.76988,-86.57396 l 9.99751,54.54838 c -10.96318,12.02797 -42.79408,36.72296 -84.76572,32.02558 z" />
    <path
       id="path5306-3-7"
       sodipodi:nodetypes="cccc"
       style="opacity:0.96901999;fill:#feff00;stroke:#000000;stroke-width:0.91519976"
       inkscape:connector-curvature="0"
       d="m 578.10035,295.01129 c -27.64161,-9.55457 -35.38954,-13.22807 -45.6827,-30.82148 l -26.51012,15.54425 c 12.3677,7.93864 46.55875,22.4088 72.19366,15.27723 z" />
    <path
       id="path5306-3-7-2"
       sodipodi:nodetypes="cccc"
       style="opacity:0.96901999;fill:#feff00;stroke:#000000;stroke-width:1.10446298px"
       inkscape:connector-curvature="0"
       d="m 597.59789,319.67327 c -35.77899,-5.78807 -45.80749,-8.01345 -59.13081,-18.6715 l -34.31416,9.41665 c 16.00842,4.80919 60.26398,13.5751 93.44246,9.25465 z" />
    <path
       id="path5306-3-7-2-7"
       sodipodi:nodetypes="cccc"
       style="opacity:0.96901999;fill:#feff00;stroke:#000000;stroke-width:0.91519976"
       inkscape:connector-curvature="0"
       d="m 355.76307,297.97152 c 32.7279,3.41738 47.74217,-9.49886 70.89634,-30.45445 l 41.14165,15.35924 c -19.19352,7.84403 -94.9835,34.99981 -112.03548,15.09521 z" />
    <path
       id="path3824"
       sodipodi:nodetypes="csssssscssccscc"
       style="fill:#ffc69f;stroke:#000000;stroke-width:0.91519976"
       inkscape:connector-curvature="0"
       d="m 517.83218,225.16567 c 7.50337,17.68442 17.12317,33.88472 19.1751,66.06531 0.46785,7.33719 4.36827,-11.09589 13.00087,2.23928 3.77321,5.82857 2.21575,23.12986 0.33942,28.92033 -6.30613,19.46056 -13.00003,9.84679 -13.97575,12.92104 -10.47322,32.97665 -30.59807,47.89285 -43.48755,51.82717 -20.56203,6.2752 -36.114,-6.60774 -42.54785,-12.28799 -3.07899,-2.71802 -25.7195,-17.52141 -30.83091,-38.5381 -5.44767,6.50362 -14.88278,0.74439 -19.22618,-12.62602 -4.89164,-15.05921 -1.50126,-27.24219 3.9681,-29.97841 3.86911,-1.93586 9.21192,2.55291 9.21192,2.55291 l 3.39783,-24.86 c 5.35873,-47.1748 28.78065,-40.26224 43.54869,-41.18232 39.31753,-2.44939 31.63828,-10.88287 36.88117,-8.96282 11.0729,9.13054 5.28101,5.31283 20.54612,3.90972 z" />
    <path
       id="path3857"
       sodipodi:nodetypes="cscsc"
       style="fill:#000000"
       inkscape:connector-curvature="0"
       d="m 468.51044,266.84902 c 0,0 0.74233,6.55213 -0.2115,5.80887 -7.36795,-5.74186 -29.37278,-1.75134 -33.62991,3.03064 -2.66835,-2.16557 11.31829,-10.69786 16.92048,-10.60785 5.89348,0.0951 16.92048,1.76794 16.92048,1.76794 z" />
    <path
       id="path3855"
       sodipodi:nodetypes="ccccc"
       style="fill:#000000"
       inkscape:connector-curvature="0"
       d="m 510.70486,271.6094 c -2.71424,-3.57798 -6.66551,-5.96658 -17.76638,-3.53578 l -0.42301,4.79858 c 9.29232,-4.39815 15.38111,-1.91065 19.03522,5.80887 0.47835,-2.05456 0.36417,-4.34495 -0.84606,-7.07167 z" />
    <path
       id="path3899"
       sodipodi:nodetypes="cccsccsszcc"
       style="stroke:#000000;fill:#f4eed7"
       d="m452.37 702.34c9.7089 12.555 2.422 32.817 3.0305 48.992-1.488 58.952-49.183 76.865-100.01 54.548-31.373-14.396-59.368-18.116-80.307-40.406-6.0264-6.4152-6.0062-19.024 1.0102-32.325l6.566-0.50508c-1.7964 3.7039-0.71109 7.4078 1.5152 11.112 12.42 20.663 36.778 26.279 67.175 35.86 28.423 8.9594 63.915 4.1813 70.206-25.254 6.2905-29.435 5.4535-29.139 0-42.426l30.81-9.5964z" />
    <path
       id="path4016"
       sodipodi:nodetypes="cssccsscc"
       style="opacity:0.49;fill:#2b1100"
       d="m460.96 633.61c5.9187 16.622 6.5599 33.168 4.5457 51.518-3.3702 30.703-30.243 42.66-53.538 43.437-76.62 2.5531-89.638-7.0639-117.68-26.264 2.1954-8.0509 7.6306-15.022 11.617-22.476 15.902 17.894 37.331 23.09 69.195 26.516 27.387 2.9446 58.974-2.0804 66.165-31.315 3.3825-13.75-2.5036-25.831-5.5558-38.386l25.254-3.0305z" />
    <path
       id="path3897"
       sodipodi:nodetypes="cssscccsscc"
       style="stroke:#000000;fill:#f4eed7"
       d="m460.96 629.61c5.9187 16.622 6.5599 33.168 4.5457 51.518-3.3702 30.703-30.243 42.66-53.538 43.437-76.62 2.5531-88.628-5.5486-116.67-24.749-9.6171-6.5842-4.1567-17.525 6.0609-32.325l9.0914-3.283-4.5457 11.617c15.902 17.894 37.331 23.09 69.195 26.516 27.387 2.9446 58.974-2.0804 66.165-31.315 3.3825-13.75-2.5036-25.831-5.5558-38.386l25.254-3.0305z" />
    <path
       id="path3917"
       sodipodi:nodetypes="czscccscc"
       style="opacity:.5;fill:#2b1100"
       d="m500.37 546.19c-7.3863 23.97-3.925 38.782-22.728 71.216s-36.388 37.23-57.074 27.274c-15.012-7.2249-80.812-27.779-80.812-27.779l16.162-24.244c21.701 10.066 42.219 17.768 65.155 30.305 20.408 7.4469 28.286-7.39 36.365-18.688 14.42-20.165 16.153-32.024 22.728-48.487 5.9379-5.5881 4.1242-34.431 20.203-9.5964z" />
    <path
       id="path3963"
       sodipodi:nodetypes="cccccc"
       style="opacity:.3;fill:#000000"
       d="m451.78 467.19c13.235 17.908 22.355 39.353 35 58.938l-13.375-5.2188c-4.0778-2.4553-6.9688-4.25-6.9688-4.25-9.603-13.511-19.209-23.988-28.812-34.531l14.156-14.938z" />
    <path
       id="path3895"
       sodipodi:nodetypes="csszsscccscsccs"
       style="stroke:#000000;fill:#f4eed7"
       d="m458.94 509.91c15.585 3.0226 24.14 10.787 36.871 15.657 6.0315 2.3075 7.9541 8.1224 6.566 12.627-7.3863 23.97-3.925 38.782-22.728 71.216s-36.388 37.23-57.074 27.274c-13.174-6.3404-64.451-22.693-77.057-26.665-1.7587-0.55401-3.2501 3.431-3.2501 3.431-6.1636-2.1137 7.8326-20.033 15.657-28.789 21.701 10.066 42.219 17.768 65.155 30.305 20.408 7.4469 28.286-7.39 36.365-18.688 14.42-20.165 16.153-32.024 22.728-48.487 5.4799-7.7065 3.2675-12.38-0.50508-14.647-10.321-6.2033-17.678-6.7624-25.759-10.102l-9.5964 3.5355c1.5609-7.0482 5.6433-18.022 12.627-16.668z" />
    <path
       id="path3672"
       sodipodi:nodetypes="csccscccccssccsccsccccccccccccccc"
       style="opacity:.3;fill:#2b1100"
       d="m457.65 509.78c0.4139-0.008 0.84477 0.0403 1.2812 0.125 5.6285 1.0916 10.334 2.8124 14.656 4.7812v0.53125s-5.0137 3.6406-4.125 8.0312c0.62364 3.0811 5.0807 5.5701 10.688 8.625l-0.875-0.0937c-1.9384-1.0525-3.7697-1.922-5.5312-2.6562-33.267 30.247-57.312 98.25-57.312 98.25l-17.125 75.125c-2.6173 0.94948-4.0253 1.0863-5.2188 3.7188-1.1572 2.5525-5.0903 10.861-3.0625 15 1.2436 2.5381 3.625 3.5625 3.625 3.5625l-12.32 58.72c0.19817-0.014-4.2102 3.1459-2.9418 7.0398 3.3274 10.215 7.3383 19.782 37.098 21.523-17.398 5.6286-38.939 3.5409-61.094-6.1875-31.373-14.396-59.373-18.116-80.312-40.406-6.0264-6.4152-6.0163-19.011 1-32.312l5.7812-0.4375c3.7131-14.065 8.8159-25.546 12.875-33.312-8.8414-6.6224-3.4205-17.401 6.5938-31.906l9.0938-3.2812-1.6562 4.25c7.5024-17.526 19.309-40.277 33.156-55.219-5.1019-2.6696 7.8423-19.345 15.562-28.062l5.9062 1.9688c0.72311 0.32642 1.4349 0.6459 2.1562 0.96875 15.059-16.876 51.239-43.503 80.938-62.344 1.5673-6.5913 5.1781-15.889 11.156-16zm-112.56 100.22c-0.97245 0.089-1.8098 1.3926-2.3125 2.375 0.77532-0.81412 1.5252-1.6133 2.3125-2.375z" />
    <path
       id="path3923"
       sodipodi:nodetypes="cscsssscccc"
       style="stroke:#000000;fill:#f4eed7"
       d="m413.86 502.33c-0.10504 11.407-3.3246 22.106-0.25254 34.345 5.8824 23.437 0.52034 22.251 0.75762 33.335 0.47972 0.47972 17.015 56.763 15.91 62.629-3.067 16.28-16.109 35.055-27.274 33.84-27.175-2.9563-43.071-2.7639-50.76-41.416-2.7224-13.686 15.208-56.939 18.688-62.377 6.8345-10.679 15.405-11.617 15.405-11.617-0.94201-4.0794 1.4931-5.9073 4.5457-7.3236 7.018-18.41 3.9742-28.805 5.5558-41.669l17.425 0.25254z" />
    <path
       id="path3901"
       sodipodi:nodetypes="ccccc"
       style="fill:#782121"
       d="m420.93 509.91c1.0451 3.7301 1.6973 7.1655-1.0102 8.0812-10.648 4.2067-19.672 1.5596-29.442 2.2549-1.3418-4.4114 0.23007-5.4017 2.6479-7.9333 7.5074-0.214 17.478-1.2492 27.805-2.4028z" />
    <path
       id="path3903"
       sodipodi:nodetypes="ccsccc"
       style="fill:#782121"
       d="m418.79 520.93c2.4503 5.4144 1.8198 9.4596-4.2857 11.071 0 0-8.7522-3.694-14.643-2.5-1.8652 0.37807-9.6756 3.2143-10 3.2143-3.2033-2.9762-1.8234-5.9524-1.4286-8.9286 14.314-2.3507 21.374-2.2835 30.357-2.8571z" />
    <path
       id="path3709"
       style="opacity:.3;fill:#28170b"
       inkscape:connector-curvature="0"
       d="m358.49 422.91c-5.2279 13.139 11.453 30.47 21.5 39.375-1.437-0.63519-2.8621-1.2619-4.3125-1.875-12.722-5.378-21.548-18.189-23.812-24.25-1.2425-3.3253 1.4674-8.759 6.625-13.25z" />
    <path
       id="path3883"
       sodipodi:nodetypes="cssssss"
       style="stroke:#000000;fill:#ed9ac8;fill-opacity:1"
       d="m420.05 391.22c42.228 30.254 44.304 85.714 24.749 102.03-18.109 15.105-41.227 22.133-62.124 13.132-11.36-4.8933-20.75-10.048-30.81-21.718-8.8274-10.241-4.8602-28.295-0.00001-40.911 7.8195-20.298 22.939-37.799 39.396-52.023 16.133-13.944 20.987-6.0949 28.789-0.50508z" />
    <path
       id="path3981"
       sodipodi:nodetypes="cscccscccc"
       style="opacity:.3;fill:#552200"
       d="m399.33 568.62c10.646 16.435 20.694 41.015 23.915 50.884 4.9923 15.293 1.3203 21.736-1.4062 23.219 0.85111-8.1323-1.3642-11.018-2.3438-14.094-3.6742 8.0886-5.01 12.719-14.094 19.812 5.403-7.9262 8.1455-27.554 4.2812-34.656-6.6072-12.143-31.795-19.451-37.688-14.094-3.7752 2.3178-10.261 11.668-15.938 0.96875 4.8959-16.466 12.704-34.576 14.875-37.969 8.9125-1.7896 21.63-0.85889 28.397 5.9286z" />
    <path
       id="path3925"
       sodipodi:nodetypes="cscsssscssczcssc"
       style="stroke:#000000;stroke-width:.2;fill:#ffc69f"
       inkscape:connector-curvature="0"
       d="m374.72 565.22s15.91-5.8084 24.496 4.2932c5.7244 6.7346 2.2986 7.3775 2.1503 9.5404-1.6442 2.898-3.6804 5.5311-7.7616 10.898-5.5676 7.3218-10.26 13.787-13.94 11.65-4.6216-2.6834 8.8626-18.152 4.7675-15.737-7.4963 4.4204-7.6469 23.064-10.218 24.7-8.6852 5.526-4.1468-19.071-2.3162-24.92 0 0-4.2111 16.372-5.8389 21.474-1.6278 5.1025-4.0824 4.0042-4.9821 2.4304-1.858-3.25 0.005-18.847 4.2984-24.126-4.1814 3.4224-5.7066 22.535-10.607 22.981-4.9 0.44608-2.314-13.076 2.0203-22.476-6.2446 15.487-2.5249 17.378-8.0326 20.178-6.7401 3.4257 1.2476-21.517 9.8108-30.371 6.1962-6.4066 9.344-5.2914 16.152-10.515z" />
    <path
       id="path3938"
       sodipodi:nodetypes="cssc"
       style="opacity:.5;fill:#a05a2c"
       d="m496.82 419c-0.12626 4.1669-2.0619 4.8049-3.7881 4.9245-2.6494 0.18361-3.9143-5.3033-3.283-5.0508 0.63135 0.25253 7.0711 0.12627 7.0711 0.12627z" />
    <path
       id="path3976"
       style="opacity:.3;fill:#552200"
       d="m391.4 542.31c2.0564 0.73216 9.4794 3.3793 10.594 3.9688 2.7006 1.4286 1.0453 2.4613-1.25 1.9688-3.3288-0.71428-6.4152-5.1652-9.0938-2.8438s-2.875 4.4688-2.875 4.4688c8.2945-0.35127 16.353-0.25684 20.906 6.4062 1.6529 3.1985-0.52432 3.0555-2.1562 2.5 0.34796-3.7854-9.8951-7.167-17.125-7.5-2.4524-0.11293-3.6521-0.68899-4.25-1.2812-0.30183-3.329 1.9524-4.9665 4.7188-6.25 0.18733-0.4914 0.35798-0.95732 0.53125-1.4375z" />
    <path
       id="path3986"
       style="opacity:.5;fill:#2b1100"
       d="m580.65 665.47c5 4.6429 19.163 83.02 24.719 81 4.6457-1.6893 4.7038-9.9615 4.25-13.594 0.48049 3.3508 6.4943 45.139 10.094 62.219-1.1513 0.25779-2.3608 0.50295-3.6875 0.6875-8.3 1.1545-8.5905-2.4313-12.125-4.0312l-1.0938 1.5c-4.1871-44.046-17.357-87.424-22.156-127.78zm-69.688 48.5s4.3752 83.613 10.688 102.06c-5.596-1.3742-5.9032-4.8208-9.1875-7.125l-1.5625 0.28125-0.4375-32.594 0.5-62.625zm49.91 17.03s7.7194 53.958 11.281 70.812c-1.6579 0.51577-3.3386 1.1058-5.0938 1.7188-2.89-24.17-4.4-48.35-6.19-72.53zm-69.094 33.469 4.0625 47.406-3.0625 0.5625s4.0516 2.5422 2.0312 4.5625c-1.3376 1.3376-2.9861 2.2536-4.8438 2.875l1.8125-55.406zm-30.312 30.812 1.0625 24.75c-0.18613 0.002-0.37884-0.005-0.5625 0-3.283-0.75761-5.5625-4.5625-5.5625-4.5625s-0.27445 2.9019-1.9375 4.3125l7-24.5z" />
    <path
       id="path4005"
       style="opacity:.5;fill:#28170b"
       d="m441.43 486.28c-2.4516 5.1689-6.9245 10.68-9.7188 15.906-14.793 8.1386-31.422 10.905-46.969 5.0312-0.24307-0.21652-0.51847-0.4064-0.8125-0.5625-5.2596-2.7922-13.409-8.7962-12.844-8.9375 7.457 4.1867 15.258 6.1484 23.188 7.5-5.5949-3.7405-7.3204-5.9863-12.5-13.219 10.745 7.9711 9.9484 9.4598 16.094 11.062l1.0625-3.9062s5.7188 5 5.7188 2.5 1.4286-3.9241 2.5 0.71875c1.0714 4.6429 7.8616 2.5 8.2188 0 0.35714-2.5 3.9062-10 3.9062-10s-0.70089 11.045 2.1562 8.1875c2.8571-2.8572 9.6429-6.067 20-14.281z" />
    <path
       id="path3702"
       sodipodi:nodetypes="ccsc"
       style="opacity:.3;fill:#28170b"
       d="m381.15 406.37c-21.488 47.034 8.1612 80.765 31.315 100.01-18.48 2.3205-25.373 0.48418-39.901-8.5863-40.577-25.333-19.759-55.899 8.5863-91.419z" />
    <path
       id="path4451-7"
       sodipodi:rx="66.670067"
       sodipodi:ry="58.745651"
       style="opacity:.96902;stroke:#000000;stroke-width:1.7478;fill:#ffffff"
       sodipodi:type="arc"
       d="m626.29 253.33c0 32.444-29.849 58.746-66.67 58.746s-66.67-26.301-66.67-58.746c0-32.444 29.849-58.746 66.67-58.746 36.748 0 66.567 26.201 66.67 58.581"
       sodipodi:open="true"
       transform="matrix(.19054 .0039439 -.0060263 .28736 398.04 222.91)"
       sodipodi:cy="253.33151"
       sodipodi:cx="559.62451"
       sodipodi:end="6.2803845"
       sodipodi:start="0" />
    <path
       id="path4451-1-6"
       sodipodi:rx="66.670067"
       sodipodi:ry="58.745651"
       style="opacity:.96902;stroke:#000000;fill:#000000"
       sodipodi:type="arc"
       d="m626.29 253.33c0 32.444-29.849 58.746-66.67 58.746s-66.67-26.301-66.67-58.746c0-32.444 29.849-58.746 66.67-58.746 36.748 0 66.567 26.201 66.67 58.581"
       sodipodi:open="true"
       transform="matrix(.11385 .0022934 -.0034536 .16027 438.89 263.21)"
       sodipodi:cy="253.33151"
       sodipodi:cx="559.62451"
       sodipodi:end="6.2803845"
       sodipodi:start="0" />
    <path
       id="path4451-1-8-2-1-7-1"
       sodipodi:rx="66.670067"
       sodipodi:ry="58.745651"
       style="opacity:.96902;filter:url(#filter4173-4);stroke:#000000;stroke-width:5.6195;fill:#ffffff"
       sodipodi:type="arc"
       d="m626.29 253.33c0 32.444-29.849 58.746-66.67 58.746s-66.67-26.301-66.67-58.746c0-32.444 29.849-58.746 66.67-58.746 36.748 0 66.567 26.201 66.67 58.581"
       sodipodi:open="true"
       transform="matrix(.034113 0 0 .043867 480.42 290.29)"
       sodipodi:cy="253.33151"
       sodipodi:cx="559.62451"
       sodipodi:end="6.2803845"
       sodipodi:start="0" />
    <path
       id="path3885-1-5-4"
       style="opacity:.96902;stroke:#000000;stroke-width:.57903px;fill:none"
       d="m468.4 318.49c1.0559 2.7744 3.4208 5.0177 6.247 5.926 2.4652 0.79226 5.2401 0.57003 7.5478-0.60449s4.1205-3.2871 4.9308-5.7465"
       inkscape:transform-center-x="-0.019486274"
       sodipodi:nodetypes="csc"
       inkscape:transform-center-y="-7.8973036"
       inkscape:connector-curvature="0"
       inkscape:original-d="m 468.40176,318.49455 c -3.07487,-0.33487 1.06676,3.81864 6.24699,5.92599 5.18024,2.10735 11.39909,2.16854 12.47863,-6.35098"
       inkscape:path-effect="#path-effect3887-8-0-8" />
    <path
       id="path4451-7-6"
       sodipodi:rx="66.670067"
       sodipodi:ry="58.745651"
       style="opacity:.96902;stroke:#000000;stroke-width:1.7478;fill:#ffffff"
       sodipodi:type="arc"
       d="m626.29 253.33c0 32.444-29.849 58.746-66.67 58.746s-66.67-26.301-66.67-58.746c0-32.444 29.849-58.746 66.67-58.746 36.748 0 66.567 26.201 66.67 58.581"
       sodipodi:open="true"
       transform="matrix(.20428 .027653 -.020690 .27502 341.79 213.17)"
       sodipodi:cy="253.33151"
       sodipodi:cx="559.62451"
       sodipodi:end="6.2803845"
       sodipodi:start="0" />
    <path
       id="path4451-1-6-1"
       sodipodi:rx="66.670067"
       sodipodi:ry="58.745651"
       style="opacity:.96902;stroke:#000000;fill:#000000"
       sodipodi:type="arc"
       d="m626.29 253.33c0 32.444-29.849 58.746-66.67 58.746s-66.67-26.301-66.67-58.746c0-32.444 29.849-58.746 66.67-58.746 36.748 0 66.567 26.201 66.67 58.581"
       sodipodi:open="true"
       transform="matrix(.11025 -.0068844 .015910 .16542 384.29 267.03)"
       sodipodi:cy="253.33151"
       sodipodi:cx="559.62451"
       sodipodi:end="6.2803845"
       sodipodi:start="0" />
    <path
       id="path4451-1-8-2-1-7-1-8"
       sodipodi:rx="66.670067"
       sodipodi:ry="58.745651"
       style="opacity:.96902;filter:url(#filter4173-4-2);stroke:#000000;stroke-width:5.6195;fill:#ffffff"
       sodipodi:type="arc"
       d="m626.29 253.33c0 32.444-29.849 58.746-66.67 58.746s-66.67-26.301-66.67-58.746c0-32.444 29.849-58.746 66.67-58.746 36.748 0 66.567 26.201 66.67 58.581"
       sodipodi:open="true"
       transform="matrix(.031794 0 0 .032783 429.69 292.95)"
       sodipodi:cy="253.33151"
       sodipodi:cx="559.62451"
       sodipodi:end="6.2803845"
       sodipodi:start="0" />
    <path
       id="path4446"
       style="fill:#f40800;stroke:#000000;stroke-width:1px"
       d="m 246.98,214.31 c 5.7663,-2.357 6.03982,-3.8302 10.41722,-4.4194 1.5573,0.0842 4.18788,0.54717 4.73508,2.5254 1.2206,-1.894 2.1887,-2.9042 4.0406,-3.0305 4.8403,0.75762 7.7866,2.9042 11.112,4.5457 -2.7779,5.8084 -5.3033,7.955 -7.9549,8.3338 -5.135,1.2206 -12.795,0.54717 -14.647,-0.50508 -1.3048,-0.46298 -5.0087,-3.5776 -7.7024,-7.4499 z"
       sodipodi:nodetypes="ccccccccc"
       inkscape:connector-curvature="0"
       transform="translate(214.12,140.46)" />
    <path
       style="opacity:0.96901999;fill:none;stroke:#000000;stroke-width:1.03919995"
       inkscape:transform-center-x="-0.70627619"
       inkscape:transform-center-y="-17.87389"
       d="m 445.46875,344.83625 c 5.6691,6.8633 9.18625,8.09075 17.71225,10.64875 7.9143,2.374 16.482,2.5288 24.477,0.4423 7.9949,-2.0865 12.49221,-3.68489 18.23721,-9.62379"
       id="path3885-1-5-4-2"
       inkscape:connector-curvature="0"
       sodipodi:nodetypes="ccsc" />
    <path
       id="path4384"
       sodipodi:rx="13.161078"
       sodipodi:ry="15.358378"
       style="opacity:0.2;fill:#f44d00"
       sodipodi:type="arc"
       d="m 448.89686,334.7562 a 13.161078,15.358378 0 0 1 -13.15187,15.35837 13.161078,15.358378 0 0 1 -13.17028,-15.33687 13.161078,15.358378 0 0 1 13.13342,-15.37985 13.161078,15.358378 0 0 1 13.18868,15.31533"
       sodipodi:open="true"
       sodipodi:cy="334.7562"
       sodipodi:cx="435.73578"
       sodipodi:end="6.2803845"
       sodipodi:start="0" />
    <path
       id="path4384-7"
       sodipodi:rx="12.562907"
       sodipodi:ry="13.929743"
       style="opacity:0.2;fill:#f44d00"
       sodipodi:type="arc"
       d="m 527.03288,335.93304 a 12.562907,13.929743 0 0 1 -12.55411,13.92974 12.562907,13.929743 0 0 1 -12.57169,-13.91023 12.562907,13.929743 0 0 1 12.5365,-13.94922 12.562907,13.929743 0 0 1 12.58925,13.8907"
       sodipodi:open="true"
       sodipodi:cy="335.93304"
       sodipodi:cx="514.46997"
       sodipodi:end="6.2803845"
       sodipodi:start="0" />
    <path
       id="path3885-1-5-4-4"
       style="opacity:0.96901999;fill:none;stroke:#000000;stroke-width:0.37497565px"
       d="m 502.12025,334.86449 c -0.2324,2.63601 0.21456,5.35193 1.26508,7.68692 1.73392,3.85411 5.15127,6.55353 8.79985,6.95116"
       inkscape:transform-center-x="-3.6651943"
       sodipodi:nodetypes="csc"
       inkscape:transform-center-y="-5.4767117"
       inkscape:connector-curvature="0"
       inkscape:original-d="m 506.45085,334.86109 c -1.43357,-1.98532 -0.26934,3.56419 1.51046,7.68632 1.77982,4.12214 6.44803,10.60494 10.50719,6.95064" />
    <path
       id="path3885-1-5-4-4-1"
       style="opacity:0.96901999;fill:none;stroke:#000000;stroke-width:0.37497565px"
       d="m 441.76833,348.19556 c 1.92136,-1.14869 3.59222,-2.88863 4.80663,-5.0053 1.86834,-3.25646 2.61366,-7.40309 2.02906,-11.28791"
       inkscape:transform-center-x="5.1286822"
       sodipodi:nodetypes="csc"
       inkscape:transform-center-y="-2.9353111"
       inkscape:connector-curvature="0"
       inkscape:original-d="m 434.38908,348.19398 c -1.5392,1.90459 1.44141,-3.70513 5.73911,-5.00493 1.74234,-0.52696 0.44864,-3.02694 2.42267,-11.28736" />
    <path
       id="path5306"
       sodipodi:nodetypes="cccc"
       style="fill:#feff00;stroke:#000000;stroke-width:0.91519976px"
       inkscape:connector-curvature="0"
       d="m 406.55048,280.2201 c 12.76218,-20.59666 15.95314,-26.90717 15.25465,-42.14639 l 21.83506,-6.42912 c -4.28728,11.1909 -19.0436,38.09806 -37.09055,48.57491 z" />
    <path
       id="path5306-4-7"
       sodipodi:nodetypes="cccc"
       style="opacity:0.96901999;fill:#feff00;stroke:#000000;stroke-width:0.86448848px"
       inkscape:connector-curvature="0"
       d="M 499.18054,257.8983 C 481.05152,246.04535 476.0649,242.05503 470.65032,228.23491 l -19.74043,5.18982 c 5.36945,21.33172 29.93392,24.19795 48.26981,24.47297 z" />
    <path
       id="path5306-4"
       sodipodi:nodetypes="cccc"
       style="opacity:0.96901999;fill:#feff00;stroke:#000000;stroke-width:0.86448848px"
       inkscape:connector-curvature="0"
       d="m 518.5022,255.84814 c -18.12902,-11.85296 -23.11564,-15.84328 -28.53023,-29.66339 l -19.74042,5.18982 c 5.36945,21.33171 29.93392,24.19794 48.26981,24.47297 z" />
    <path
       id="path5306-9"
       sodipodi:nodetypes="cccc"
       style="opacity:0.96901999;fill:#feff00;stroke:#000000;stroke-width:0.91519976"
       inkscape:connector-curvature="0"
       d="m 544.03828,295.87135 c -13.36519,-30.07241 -7.14876,-35.19983 -19.01763,-55.81649 l -35.47749,-15.11121 c 6.2986,16.33931 27.97746,55.62447 54.4901,70.9217 z" />
    <path
       id="path2938"
       d="m 476.57579,195.89331 -3.18577,8.91372 c -0.89489,-2.81293 -1.467,-6.68764 -2.68259,-8.44288 2.24297,12.36299 -12.17926,19.74259 -17.68849,5.26352 -1.46172,1.86325 -3.50478,1.2307 -4.64674,1.2229 2.40788,12.13198 -7.69868,13.87512 -10.54023,9.02143 l -2.0392,3.10965 -3.80705,-0.97085 c 2.57446,7.509 -3.2717,10.93788 -12.38362,8.40678 -0.66232,2.44819 -1.92127,3.38217 -3.24917,4.15393 l -0.20884,2.69782 c 0.98091,0.8474 1.63216,1.88275 1.999,3.06334 l 1.26123,2.80463 c 6.41031,-3.12315 12.81745,-6.04639 19.25047,-7.4808 7.76275,-2.21388 15.59803,-4.01543 23.71195,-4.19684 11.27809,-1.45382 22.17259,-1.58313 34.18686,0.26942 10.63236,1.84415 20.86605,4.54607 27.67009,8.07705 l 4.22263,1.85015 c 0.70253,-2.68362 0.80932,-4.52426 3.32488,-5.82327 l -0.0444,-3.33577 c -2.84406,-0.9335 -3.11123,-2.35419 -3.24498,-3.8022 -9.95899,3.15825 -13.67173,-0.003 -13.32667,-7.26049 l -3.41257,1.07659 -2.00227,-3.30707 c -7.05848,5.24333 -12.3074,1.10089 -11.6399,-9.21004 -2.49833,1.27091 -4.02212,-1.43171 -4.17237,-0.83717 -3.44381,13.62609 -20.41965,8.86191 -17.35181,-5.26383 z m -24.82084,10.98889 c 0.33292,-0.10596 1.77472,2.14587 2.01232,3.14015 0.23758,0.99423 -0.007,3.7872 -0.3398,3.89311 -0.33291,0.10596 -1.77471,-2.14587 -2.01232,-3.14015 -0.23758,-0.99423 0.007,-3.78721 0.3398,-3.89311 z m 43.51855,-0.26501 c 0.34403,0.0543 0.72008,2.73452 0.52712,3.73931 -0.19299,1.00478 -1.55721,3.41857 -1.90118,3.36427 -0.34403,-0.0543 -0.72009,-2.73452 -0.52711,-3.7393 0.19299,-1.00479 1.55712,-3.41858 1.90118,-3.36428 z m -21.65752,3.19156 c 0.34707,-0.0256 1.27471,2.498 1.29532,3.52279 0.0206,1.02478 -0.80293,3.68699 -1.15001,3.71249 -0.34705,0.0256 -1.28693,-2.4978 -1.30754,-3.52258 -0.0206,-1.02468 0.81517,-3.6871 1.16223,-3.7127 z m -16.94225,1.58263 c 0.0256,-0.005 0.0446,0.004 0.0614,0.0119 0.26761,0.12119 0.13877,2.36909 -0.17856,3.13365 -0.31734,0.76458 -1.79515,2.38419 -2.06274,2.26298 -0.2676,-0.12118 -0.15082,-2.35609 0.16651,-3.12065 0.29751,-0.71679 1.62882,-2.20577 2.01341,-2.28798 z m 33.97161,-0.30488 c 0.39157,0.0285 1.89364,1.31171 2.2784,1.98136 0.41037,0.71426 0.81747,2.92724 0.56736,3.08425 -0.2501,0.15701 -1.92899,-1.2533 -2.33937,-1.96756 -0.41037,-0.71426 -0.81746,-2.92723 -0.56735,-3.08424 0.0156,-0.01 0.0349,-0.0156 0.061,-0.0137 z m 7.44634,0.37861 c 0.027,0.002 0.047,0.0132 0.0616,0.0248 0.23228,0.18464 -0.40796,2.33989 -0.89021,3.00294 -0.48221,0.66307 -2.29087,1.87695 -2.52312,1.69233 -0.23229,-0.18465 0.39572,-2.33968 0.87789,-3.00274 0.42195,-0.58018 1.86718,-1.58542 2.37614,-1.70293 0.0363,-0.008 0.0706,-0.0161 0.0977,-0.0143 z m -48.78991,1.43292 c 0.5207,0.0231 2.09967,0.75041 2.61123,1.245 0.58464,0.56528 1.56943,2.56611 1.37119,2.79022 -0.19818,0.22413 -2.18518,-0.63893 -2.76977,-1.20419 -0.58466,-0.56527 -1.55713,-2.56621 -1.35897,-2.79043 0.0248,-0.0281 0.0719,-0.0439 0.14633,-0.0406 z m 80.30004,11.06689 c 0.0727,-0.0168 0.11798,-0.0124 0.14701,0.0107 0.23229,0.18466 -0.39572,2.33969 -0.87789,3.00274 -0.48221,0.66308 -2.29088,1.87695 -2.52312,1.69234 -0.23229,-0.18465 0.39572,-2.33969 0.87789,-3.00274 0.42195,-0.58019 1.86718,-1.58543 2.37614,-1.70294 z m -111.03045,1.84375 c 0.39186,-0.0238 2.032,1.05708 2.49448,1.67013 0.49338,0.654 1.16223,2.78733 0.93309,2.97624 -0.2291,0.18898 -2.06198,-0.98965 -2.55537,-1.64363 -0.49338,-0.65398 -1.16223,-2.78732 -0.93308,-2.97624 0.0143,-0.0118 0.0348,-0.025 0.0608,-0.0265 z"
       style="fill:#ff00cc;stroke:#000000;stroke-width:0.3507137"
       inkscape:connector-curvature="0" />
    <path
       id="path2865"
       d="m 419.45671,235.4965 0.80349,8.92992 c 1.03534,-3.06705 7.56987,-4.8654 14.13739,-6.56043 3.15813,-0.81511 6.248,-1.38741 8.92297,-1.90825 5.15621,-0.96539 10.23118,-1.48802 15.48915,-1.91096 2.12246,-0.17073 7.35287,-0.24579 12.15665,-0.47611 2.01324,-0.0965 11.78144,0.13447 20.00341,0.18401 5.34348,0.0322 9.16083,0.48818 11.5486,0.85363 8.24517,1.10519 12.32081,2.16857 15.17257,2.85193 1.32647,0.31783 2.53544,0.72204 3.85228,1.21159 1.56181,0.5806 4.2794,2.31189 6.12539,3.87181 l 0.44591,-8.60819 c -8.98997,-5.22672 -19.19854,-7.93084 -29.3443,-9.58787 -13.12985,-2.14427 -25.2262,-2.14257 -40.43143,-0.46954 -12.30405,1.46752 -26.14831,5.21852 -38.88285,11.61894 z"
       sodipodi:nodetypes="ccscssscssccscc"
       style="fill:#ff00cc;stroke:#000000;stroke-width:0.26303756"
       inkscape:connector-curvature="0" />
    <path
       id="path2839"
       d="m 420.36124,243.30713 c 3.2851,-3.57529 23.69101,-7.54581 32.71784,-8.41268 13.23286,-1.38051 25.34596,-0.94141 37.72121,-0.84262 11.19601,-0.0787 31.06708,4.03313 32.82755,5.97998 1.22932,0.46595 2.81542,1.72514 3.98326,2.77273 1.60637,2.45179 0.39269,5.12531 -1.99925,5.83647 -0.66932,-0.7309 -1.43853,-1.50973 -0.0203,-1.52413 0.68541,-1.02628 0.21593,-1.81794 -0.3838,-2.82542 -7.3795,-4.18384 -16.3518,-5.06611 -25.28482,-6.30811 -12.77809,-0.34905 -25.30242,-0.68653 -38.56543,-0.16129 -12.17592,1.3437 -25.39789,2.19867 -38.06794,6.94375 6.73125,5.96308 -5.43067,1.42522 -2.92723,-1.45871 z"
       sodipodi:nodetypes="ccccccccccccc"
       style="fill:#decd87;stroke:#000000;stroke-width:0.3507137px"
       inkscape:connector-curvature="0" />
    <path
       id="path2872"
       d="m 528.67811,233.94637 c 0.40004,-2.10767 0.64292,-4.24594 2.9614,-5.98048 l -0.36139,-3.51298 c -4.03577,-0.48654 -0.86432,-4.79709 -6.32129,-2.21638 -3.57237,1.68944 -9.55949,-0.31734 -10.18177,-8.64669 l -2.92094,1.14219 -2.24264,-3.04565 -3.58141,2.05037 c -5.50203,0.2231 -8.08386,-3.43028 -7.77138,-11.99897 l -4.51701,-0.59355 c -2.57489,15.48325 -19.61312,7.52641 -17.05533,-3.62269 l -3.30461,7.97825 -2.48209,-8.20456 c -1.08115,16.04729 -15.66754,16.46332 -18.17927,4.61977 l -3.83846,1.3001 c 1.30604,13.6391 -7.99148,12.09897 -11.44056,9.49677 l -1.88611,3.13735 -2.54129,-1.51772 c -1.94381,12.472 -8.51008,9.27534 -14.42299,8.29656 0.51856,2.4043 -1.28727,2.83473 -2.32052,3.92122 l -0.40962,2.64931 3.00889,3.22116 0.78274,3.09825 c 4.58988,-2.61421 10.02767,-4.21934 15.7781,-6.76144 l 16.25968,-3.96972 18.95399,-2.14338 c 5.38946,0.0966 10.77557,-0.0797 16.16922,0.38523 6.42665,0.0627 12.51762,1.23399 18.57124,2.5269 5.87187,0.9731 11.34006,3.27636 16.97324,5.0381 1.93502,1.49092 4.00211,2.69492 6.32062,3.35277"
       sodipodi:nodetypes="cccscccccccccccccccccccccccccc"
       style="opacity:0;stroke-width:0.38321px"
       inkscape:connector-curvature="0" />
    <path
       id="path4555"
       style="fill:#decd87;stroke:#000000;stroke-width:0.3507137"
       inkscape:connector-curvature="0"
       d="m 476.68467,196.31335 -3.18577,8.91371 c -0.89489,-2.81292 -1.46701,-6.68763 -2.68259,-8.44288 2.24297,12.363 -12.17926,19.74259 -17.68849,5.26363 -1.46173,1.86325 -3.50478,1.2307 -4.64674,1.2229 2.40788,12.13197 -7.69868,13.87511 -10.54023,9.02142 l -2.0392,3.10965 -3.80705,-0.97085 c 2.57446,7.50901 -3.2717,10.93788 -12.38362,8.40678 -0.66232,2.4482 -1.92128,3.38217 -3.24917,4.15393 l -0.20884,2.69782 c 0.9809,0.84741 1.63216,1.88275 1.999,3.06335 l 1.26122,2.80462 c 6.41032,-3.12315 12.81746,-6.04638 19.25047,-7.4808 7.76275,-2.21388 15.59804,-4.01542 23.71196,-4.19684 11.27809,-1.45381 22.17259,-1.58312 34.18686,0.26943 10.63236,1.84414 20.86605,4.54606 27.67009,8.07704 l 4.22262,1.85015 c 0.70254,-2.68361 0.80933,-4.52426 3.32489,-5.82326 l -0.0444,-3.33577 c -2.84406,-0.93352 -3.11123,-2.35419 -3.24499,-3.80221 -9.95898,3.15826 -13.67172,-0.003 -13.32666,-7.26048 l -3.41258,1.07658 -2.00226,-3.30706 c -7.05848,5.24332 -12.30741,1.10089 -11.6399,-9.21004 -2.49842,1.2709 -4.02212,-1.43172 -4.17237,-0.83718 -3.44381,13.6261 -20.41966,8.86191 -17.35181,-5.26382 z m -24.82084,10.98888 c 0.33292,-0.10596 1.77471,2.14587 2.01232,3.14015 0.23758,0.99423 -0.007,3.78721 -0.3398,3.89312 -0.33291,0.10595 -1.77471,-2.14588 -2.01232,-3.14016 -0.23759,-0.99423 0.007,-3.7872 0.33979,-3.89311 z m 43.51854,-0.26499 c 0.34404,0.0543 0.7201,2.73452 0.52713,3.7393 -0.19299,1.00478 -1.5572,3.41857 -1.90117,3.36427 -0.34403,-0.0543 -0.7201,-2.73452 -0.52712,-3.7393 0.19299,-1.00478 1.55712,-3.41858 1.90117,-3.36427 z m -21.65751,3.19146 c 0.34706,-0.0256 1.27471,2.498 1.29532,3.52278 0.0206,1.02468 -0.80293,3.687 -1.15001,3.7125 -0.34705,0.0256 -1.28694,-2.4978 -1.30754,-3.52259 -0.0206,-1.02468 0.81516,-3.68709 1.16223,-3.71269 z m -16.94225,1.58262 c 0.0256,-0.005 0.0446,0.004 0.0613,0.0119 0.26762,0.12118 0.13877,2.36909 -0.17856,3.13366 -0.31733,0.76458 -1.79514,2.38419 -2.06273,2.26298 -0.26762,-0.12118 -0.15083,-2.35609 0.1665,-3.12065 0.2975,-0.71679 1.62881,-2.20578 2.0134,-2.28799 z m 33.97161,-0.30486 c 0.39157,0.0285 1.89364,1.3117 2.2784,1.98136 0.41037,0.71426 0.81746,2.92723 0.56735,3.08425 -0.2501,0.15701 -1.92899,-1.25331 -2.33937,-1.96756 -0.41037,-0.71426 -0.81746,-2.92724 -0.56736,-3.08425 0.0156,-0.01 0.0349,-0.0156 0.061,-0.0137 z m 7.44634,0.37861 c 0.0271,0.002 0.047,0.0132 0.0616,0.0248 0.23229,0.18466 -0.40795,2.33989 -0.8902,3.00294 -0.48221,0.66308 -2.29088,1.87695 -2.52312,1.69234 -0.23229,-0.18465 0.39572,-2.33969 0.87789,-3.00274 0.42194,-0.58019 1.86717,-1.58543 2.37614,-1.70294 0.0363,-0.008 0.0706,-0.0161 0.0977,-0.0143 z m -48.78992,1.43291 c 0.5207,0.0231 2.09967,0.7504 2.61123,1.245 0.58465,0.56527 1.56935,2.56611 1.3712,2.79023 -0.19818,0.22414 -2.1851,-0.63892 -2.76978,-1.2042 -0.58465,-0.56527 -1.55712,-2.5662 -1.35896,-2.79042 0.0248,-0.028 0.0719,-0.0439 0.14633,-0.0406 z m 80.30005,11.06589 c 0.0727,-0.0168 0.11797,-0.0124 0.14701,0.0107 0.23228,0.18466 -0.39572,2.33969 -0.87789,3.00275 -0.48221,0.66307 -2.29088,1.87695 -2.52312,1.69233 -0.23229,-0.18464 0.39572,-2.33969 0.87789,-3.00274 0.42194,-0.58019 1.86717,-1.58543 2.37614,-1.70294 z m -111.03045,1.84375 c 0.39185,-0.0238 2.032,1.05709 2.49448,1.67014 0.49338,0.65399 1.16223,2.78732 0.93309,2.97624 -0.2291,0.18897 -2.06199,-0.98965 -2.55537,-1.64364 -0.49338,-0.65399 -1.16223,-2.78732 -0.93309,-2.97624 0.0143,-0.0118 0.0347,-0.025 0.0608,-0.0265 z" />
    <g
       id="g3276"
       style="stroke:#000000"
       transform="matrix(0.39156721,-0.00573276,0.00546769,0.41055302,416.71801,-62.854501)">
      <g
         id="layer1-0"
         style="fill:#decd87;stroke:#000000;stroke-width:3.11409998"
         inkscape:label="Layer 1"
         transform="matrix(0.17061,0.0014914,-0.0022733,0.26005,56.087,453.02)">
        <path
           id="path4242"
           d="m 388.75,432.22 c -40.191,-0.10125 -82.197,12.37 -98.093,44.118 -13.059,26.08 -16.926,62.068 -8.0602,97.06 8.8659,34.992 31.282,69.124 71.108,88.09 63.848,30.405 106.64,86.278 115.19,98.204 l 9.6805,13.527 7.9563,-14.609 c 19.414,-35.63 73.262,-71.443 117.23,-97.559 39.282,-19.047 61.456,-52.918 70.257,-87.653 8.8659,-34.992 4.9984,-70.979 -8.0602,-97.06 -8.3539,-16.684 -24.511,-27.869 -43.105,-34.857 -18.594,-6.9888 -40.059,-9.9272 -61.137,-9.1358 -21.077,0.79148 -41.779,5.2731 -58.831,14.193 -9.6624,5.0542 -18.202,11.818 -24.575,20.124 -6.9086,-8.9987 -16.37,-16.159 -27.068,-21.372 -18.247,-8.891 -40.341,-13.013 -62.487,-13.069 z m -0.0415,20.914 c 19.522,0.0492 38.919,3.896 53.388,10.946 12.066,5.8794 20.334,13.464 24.201,22.829 4.9748,17.996 -1.5664,47.637 -19.361,52.754 -14.038,4.037 -30.265,-3.4624 -33.882,-17.751 -2.5916,-10.238 3.0196,-22.076 13.337,-24.14 3.1735,-0.63481 7.0087,0.0496 9.7636,1.7064 2.755,1.6569 4.7432,4.3864 5.048,7.4917 0.29047,3.2668 0.28287,3.734 -1.288,7.679 -0.72884,1.7716 -3.1916,2.8722 -3.6146,3.0175 -3.7706,1.2951 -9.0772,-4.7924 -5.1103,-12.445 -2.4976,1.0761 -5.2852,3.8451 -5.8374,7.0547 -0.55215,3.2096 0.55794,5.5922 1.6203,7.242 2.1248,3.2995 4.0882,5.3275 8.8288,6.0974 6.3052,1.024 12.127,-2.3798 15.165,-6.5345 3.038,-4.1546 4.3775,-9.0264 3.8847,-14.047 -0.76989,-7.8434 -5.5591,-14.127 -11.446,-17.668 -5.8872,-3.5407 -12.947,-4.7998 -19.777,-3.4337 -19.044,3.8092 -28.666,23.981 -24.243,41.454 5.7326,22.646 30.198,33.951 51.436,27.844 4.922,-1.4154 9.3754,-3.5949 13.316,-6.3472 16.232,-11.337 30.15,-39.472 26.071,-59.726 3.6048,-8.9423 11.2,-16.257 22.332,-22.08 13.36,-6.9881 31.403,-11.144 49.961,-11.841 7.5496,-0.28351 15.186,0.005 22.623,0.83241 -9.5461,7.8284 -16.145,19.002 -17.637,31.403 -0.57494,4.7776 -0.39938,9.7367 0.66476,14.755 4.5915,21.651 26.064,37.988 48.714,32.423 17.477,-4.2941 30.723,-22.282 25.136,-40.913 -2.0035,-6.682 -6.4335,-12.334 -12.319,-15.878 -5.8852,-3.544 -13.666,-4.8131 -20.94,-1.8105 -4.6561,1.922 -8.3183,5.3718 -10.553,10.01 -2.2348,4.638 -2.5133,11.386 1.3503,16.482 2.9049,3.8311 5.6294,4.6232 9.5351,4.9529 1.9529,0.16484 4.5768,0.0187 7.1462,-1.977 2.5693,-1.9956 3.6938,-5.7555 3.4692,-8.4698 -4.8809,7.1022 -12.728,5.2541 -13.357,1.311 -0.0706,-0.44233 -0.26347,-3.1225 0.95559,-4.5991 2.739,-3.242 3.1543,-3.4675 6.1698,-4.7448 2.8798,-1.1888 6.1994,-0.70113 8.9534,0.95728 2.754,1.65841 5.1557,4.7198 6.0867,7.8247 3.0265,10.094 -4.7382,20.625 -14.978,23.141 -14.292,3.5115 -28.541,-7.331 -31.576,-21.643 -3.6689,-17.3 8.2529,-34.114 24.825,-39.082 3.0192,0.84853 5.9448,1.7982 8.7457,2.851 15.39,5.7845 26.68,14.467 31.784,24.66 10.239,20.448 14.111,52.42 6.4814,82.534 -3.2746,12.924 -8.5229,25.479 -16.12,36.876 -0.24304,-5.8598 -1.5363,-11.677 -3.9886,-17.127 -1.974,-4.3871 -4.6839,-8.5553 -8.1848,-12.299 -15.106,-16.153 -41.922,-19.014 -58.436,-2.518 -12.742,12.729 -14.793,34.998 -0.3947,48.051 5.164,4.6815 11.871,7.2156 18.738,7.2004 6.8667,-0.0152 14.186,-2.9434 18.862,-9.2814 2.9932,-4.057 4.3452,-8.9196 3.8639,-14.047 -0.48124,-5.1274 -3.7226,-11.042 -9.6598,-13.402 -4.464,-1.7744 -7.206,-1.0335 -10.719,0.70755 -1.7566,0.87052 -3.9205,2.33 -5.0895,5.3691 -1.1691,3.0391 -0.20147,6.8456 1.3918,9.0525 0.51174,-8.6073 8.1867,-11.103 10.761,-8.0536 0.28877,0.34204 1.8393,2.5581 1.558,4.4534 -0.67097,4.1937 -0.92427,4.5867 -2.846,7.242 -1.8514,2.5093 -4.93,3.822 -8.1433,3.8291 -3.2133,0.007 -6.8448,-1.3624 -9.2443,-3.5378 -7.8007,-7.0719 -6.5932,-20.116 0.8725,-27.574 10.42,-10.409 28.197,-8.5134 38.182,2.1643 10.957,11.717 10.72,29.77 1.8904,42.599 -6.7366,5.5624 -14.41,10.502 -23.121,14.651 l -0.43624,0.2081 -0.41548,0.22891 c -39.972,23.744 -89.434,54.417 -116.52,92.377 -9.4471,-11.829 -24.769,-29.37 -45.349,-47.26 -6.6199,-14.629 -3.2066,-33.044 10.366,-42.412 12.027,-8.301 29.8,-6.3798 37.767,6.0142 5.7079,8.88 4.1401,21.893 -4.9857,27.137 -2.8071,1.6131 -6.6464,2.1912 -9.7844,1.4983 -3.138,-0.69288 -5.8918,-2.6471 -7.1669,-5.494 -1.3128,-3.0045 -1.4622,-3.4592 -1.2257,-7.6998 0.12842,-1.9119 2.1172,-3.723 2.4721,-3.9956 3.1635,-2.4294 10.139,1.6574 8.808,10.176 2.0262,-1.8162 3.778,-5.3343 3.2822,-8.5531 -0.49574,-3.2188 -2.312,-5.1217 -3.8431,-6.3472 -3.0622,-2.451 -5.5649,-3.7566 -10.304,-2.9759 -6.3029,1.0384 -10.737,6.1226 -12.298,11.03 -1.5609,4.9069 -1.2721,9.9437 0.78939,14.546 3.2206,7.1906 9.747,11.63 16.453,13.111 6.7058,1.4806 13.798,0.4125 19.839,-3.0591 16.845,-9.68 19.568,-31.875 9.826,-47.032 -12.626,-19.643 -39.431,-22.568 -57.626,-10.01 -4.2169,2.9104 -7.7535,6.4154 -10.615,10.28 -6.3631,8.5936 -9.3826,19.108 -9.1404,29.655 -15,-11.388 -32.101,-22.345 -51.166,-31.424 -27.663,-13.174 -44.959,-34.326 -54.531,-58.04 7.127,3.0079 14.931,4.3299 22.768,3.5586 4.7807,-0.47048 9.5902,-1.7035 14.251,-3.8291 20.109,-9.1714 31.385,-33.698 21.065,-54.648 -7.9634,-16.165 -28.377,-25.245 -45.328,-15.753 -6.0793,3.4041 -10.615,8.9606 -12.797,15.483 -2.1818,6.5224 -1.7568,14.407 2.7421,20.873 2.8798,4.1385 7.0453,6.9954 12.049,8.1785 5.0034,1.1831 11.636,-0.0308 15.767,-4.9113 3.106,-3.6694 3.2859,-6.493 2.7629,-10.384 -0.2615,-1.9457 -0.94797,-4.4737 -3.4484,-6.5553 -2.50043,-2.0816 -6.4188,-2.388 -9.0158,-1.5816 7.9771,3.2386 7.8824,11.33 4.1755,12.798 -0.41584,0.1647 -2.9922,0.93553 -4.6948,0.0624 -3.7518,-1.9781 -4.0652,-2.3421 -5.962,-5.0153 -1.7812,-2.5598 -2.0389,-5.9171 -1.0179,-8.9693 1.021,-3.0522 3.4903,-6.0556 6.3152,-7.6374 9.1835,-5.1423 21.135,0.1848 25.801,9.656 6.512,13.219 -0.97892,29.482 -14.272,35.544 -13.007,5.9325 -27.902,1.8024 -37.58,-8.012 -6.0746,-28.661 -2.0898,-58.347 7.6032,-77.706 9.711,-19.395 43.953,-32.678 79.376,-32.589 z"
           style="fill:#decd87;stroke:#000000;stroke-width:3.11409998"
           inkscape:connector-curvature="0" />
      </g>
      <g
         id="g4609"
         style="fill:#ff80e5;stroke:#000000;stroke-width:4.96589994"
         transform="matrix(0.15956,-0.0010044,7.2455e-4,0.1944,116.71,578.7)">
        <path
           id="path4611"
           d="m 119.02,40.806 c 0,0 80.324,-91.042 119.35,0.61538 39.04,91.659 -117.09,177.15 -117.09,177.15"
           sodipodi:nodetypes="cscc"
           style="fill:#ff80e5;stroke:#000000;stroke-width:5.21199989px"
           inkscape:connector-curvature="0" />
        <path
           id="path4613"
           d="m 118.77,40.699 c 0,0 -74.039,-90.716 -112.14,0.62339 -38.099,91.338 114.31,176.54 114.31,176.54 l 1.4942,0"
           sodipodi:nodetypes="cscc"
           style="fill:#ff80e5;stroke:#000000;stroke-width:5.14069986px"
           inkscape:connector-curvature="0" />
        <path
           id="path4615"
           d="M 118.84,215.74 C 79.973,190.5 62.551,176.62 41.775,154.35 20.786,131.84 8.261,110.33 3.156,88.013 1.1992,79.461 1.4035,61.744 3.552,53.643 8.2145,36.061 19.17,17.507 29.401,9.863 38.0428,3.4067 44.817,1.332 55.465,1.8811 c 7.9812,0.41155 13.481,2.0141 22.388,6.524 11.634,5.8901 28.14,18.843 36.538,28.673 1.9401,2.2709 3.841,4.1289 4.2243,4.1289 0.38329,0 4.705,-3.6791 9.6038,-8.1758 16.513,-15.158 29.06,-23.201 44.597,-28.589 6.2701,-2.1744 7.4247,-2.338 16.614,-2.3537 11.501,-0.019729 14.955,0.946 23.355,6.5305 10.173,6.7633 19.307,19.438 25.742,35.72 6.1944,15.675 6.5531,35.784 0.94502,52.964 -10.932,33.489 -42.521,69.302 -90.641,102.76 -10.402,7.2327 -25.874,16.707 -27.22,16.668 -0.72028,-0.0211 -1.968,-0.46594 -2.7726,-0.98853 l 0,-1e-5 z"
           style="fill:#ff80e5;stroke:#000000;stroke-width:3.21860003"
           inkscape:connector-curvature="0" />
        <path
           id="path4617"
           d="M 104.17,205.24 C 77.192,187.1 65.196,177.39 47.841,159.63 29.409,140.76 19.719,127.61 11.794,110.68 3.7234,93.446 1.153,79.634 2.8797,62.787 5.1397,40.74 19.4887,15.678 34.7337,7.153 c 8.331,-4.6591 17.798,-5.8759 28.338,-3.6423 13.21,2.7993 31.292,14.353 47.238,30.187 l 8.2987,8.2387 2.0191,-1.6448 c 1.1105,-0.90467 5.9348,-5.0546 10.721,-9.2221 4.7859,-4.1675 11.664,-9.7126 15.285,-12.322 6.8582,-4.9431 19.498,-11.482 27.095,-14.017 5.5296,-1.845 17.33,-2.6558 24.077,-1.6542 17.962,2.6666 35.958,23.782 42.891,50.325 1.9169,7.3386 2.5869,20.583 1.466,28.976 -3.9779,29.783 -28.137,64.97 -65.994,96.115 -19.851,16.332 -50.871,37.547 -54.9,37.547 -0.5757,0 -8.2714,-4.8582 -17.102,-10.796 l 2e-5,0 z"
           style="fill:#ff80e5;stroke:#000000;stroke-width:3.21860003"
           inkscape:connector-curvature="0" />
        <path
           id="path4619"
           d="M 116.82,212.82 C 109.66,208.51 87.687,193.37 79.702,187.24 67.666,178 56.603,168.01 45.843,156.64 29.011,138.87 20.668,127.43 13.134,111.8 6.2692,97.556 3.7729,88.426 3.133,75.222 2.077,53.413 11.061,29.904 26.218,14.814 39.484,1.608 56.269,-0.484 75.296,8.6978 c 11.708,5.6502 20.299,11.956 34.774,25.525 l 8.7894,8.2388 5.4751,-4.7368 c 21.889,-18.937 34.372,-27.156 48.786,-32.121 5.1245,-1.7653 6.7788,-1.9692 16.361,-2.0171 l 10.66,-0.053342 6.2016,3.072 c 13.894,6.8823 25.672,22.115 32.027,41.421 4.347,13.205 4.8563,30.086 1.3179,43.68 -3.5608,13.680002 -12.299,30.225002 -24.408,46.215002 -6.763,8.9303 -23.912,26.687 -34.996,36.235 -17.959,15.471 -54.6,41.151 -58.718,41.151 -0.34146,0 -2.4765,-1.1174 -4.7446,-2.4832 l -1e-5,0 z"
           style="fill:#ff80e5;stroke:#000000;stroke-width:3.21860003"
           inkscape:connector-curvature="0" />
        <path
           id="path4621"
           d="M 118.11,212.88 C 108.55,207.4 80.285,187.35 69.827,178.63 54.246,165.63 33.858,143.77 24.07,129.57 15.632,117.32 7.536,99.293 5.126,87.38 3.7656,80.65 3.3792,69.03 4.2898,62.215 7.5023,38.173 21.2778,15.581 37.6798,7.453 c 5.5368,-2.7436 6.7415,-3.0555 13.085,-3.3873 17.724,-0.92707 34.568,7.9059 59.782,31.35 4.291,3.9898 8.0059,7.2541 8.2554,7.2541 0.24944,0 5.1328,-3.9002 10.852,-8.667 19.086,-15.908 30.826,-23.419 43.166,-27.616 4.1801,-1.4218 7.3698,-1.8719 15.859,-2.2381 l 10.626,-0.45841 4.7549,2.3856 c 10.02,5.0271 16.837,11.126 23.724,21.224 3.261,4.7817 7.7191,13.971 9.8443,20.292 4.8804,14.516 4.9246,34.799 0.10608,48.781 -11.081,32.155 -39.628,65.549 -82.686,96.724 -18.777,13.595 -31.025,21.497 -33.278,21.471 -0.40552,-0.005 -2.0541,-0.76352 -3.6634,-1.686 l 0,1e-5 z"
           style="fill:#ff80e5;stroke:#000000;stroke-width:3.21860003"
           inkscape:connector-curvature="0" />
        <path
           id="path4623"
           d="M 117.01,211.47 C 101.57,202.1 76.186,183.59 64.802,173.4 49.758,159.93 30.379,138.28 22.79,126.46 14.64,113.77 6.651,94.26 5.105,83.269 0.8642,53.111 15.789,19.358 38.447,7.862 l 5.6469,-2.865 8.8431,0.030921 c 9.8096,0.034308 14.178,1.0242 22.441,5.0852 9.9293,4.88 18.899,11.45 34.297,25.12 7.7929,6.9184 9.2872,7.9621 10.241,7.1522 5.4846,-4.6556 24.258,-19.26 28.915,-22.493 9.3741,-6.5092 17.265,-10.642 25.579,-13.397 2.6236,-0.86931 11.785,-1.7996 18.908,-1.92 l 7.023,-0.11872 6.0657,3.5188 c 7.1524,4.1492 17.043,13.645 21.662,20.796 3.863,5.9816 9.3833,18.968 10.81,25.43 2.7404,12.415 2.0118,30.588 -1.6786,41.869 -2.2916,7.005099 -10.075,22.531999 -14.954,29.831999 -13.34,19.959 -35.521,42.539 -60.248,61.331 -7.3215,5.5643 -26.236,18.798 -32.553,22.775 -6.7404,4.2442 -7.6617,4.3522 -12.436,1.4569 l 0,-2e-5 z"
           style="fill:#ff80e5;stroke:#000000;stroke-width:3.21860003"
           inkscape:connector-curvature="0" />
      </g>
      <g
         id="g6375"
         style="fill:#e504b8;fill-opacity:0.50980003;stroke:#000000;stroke-width:4.96589994;filter:url(#filter7067)"
         transform="matrix(0.15956,-0.0010044,7.2455e-4,0.1944,116.71,578.7)">
        <path
           id="path6377"
           style="fill:#e504b8;fill-opacity:0.50980003;stroke:#000000;stroke-width:5.21199989px"
           sodipodi:nodetypes="cscc"
           inkscape:connector-curvature="0"
           d="m 119.02,40.806 c 0,0 80.324,-91.042 119.35,0.61538 39.04,91.659 -117.09,177.15 -117.09,177.15" />
        <path
           id="path6379"
           style="fill:#e504b8;fill-opacity:0.50980003;stroke:#000000;stroke-width:5.14069986px"
           sodipodi:nodetypes="cscc"
           inkscape:connector-curvature="0"
           d="m 118.77,40.699 c 0,0 -74.039,-90.716 -112.14,0.62339 -38.099,91.338 114.31,176.54 114.31,176.54 l 1.4942,0" />
        <path
           id="path6381"
           style="fill:#e504b8;fill-opacity:0.50980003;stroke:#000000;stroke-width:3.21860003"
           inkscape:connector-curvature="0"
           d="M 118.84,215.74 C 79.973,190.5 62.551,176.62 41.775,154.35 20.786,131.84 8.261,110.33 3.156,88.013 1.1992,79.461 1.4035,61.744 3.552,53.643 8.2145,36.061 19.17,17.507 29.401,9.863 38.0428,3.4067 44.817,1.332 55.465,1.8811 c 7.9812,0.41155 13.481,2.0141 22.388,6.524 11.634,5.8901 28.14,18.843 36.538,28.673 1.9401,2.2709 3.841,4.1289 4.2243,4.1289 0.38329,0 4.705,-3.6791 9.6038,-8.1758 16.513,-15.158 29.06,-23.201 44.597,-28.589 6.2701,-2.1744 7.4247,-2.338 16.614,-2.3537 11.501,-0.019729 14.955,0.946 23.355,6.5305 10.173,6.7633 19.307,19.438 25.742,35.72 6.1944,15.675 6.5531,35.784 0.94502,52.964 -10.932,33.489 -42.521,69.302 -90.641,102.76 -10.402,7.2327 -25.874,16.707 -27.22,16.668 -0.72028,-0.0211 -1.968,-0.46594 -2.7726,-0.98853 l 0,-1e-5 z" />
        <path
           id="path6383"
           style="fill:#e504b8;fill-opacity:0.50980003;stroke:#000000;stroke-width:3.21860003"
           inkscape:connector-curvature="0"
           d="M 104.17,205.24 C 77.192,187.1 65.196,177.39 47.841,159.63 29.409,140.76 19.719,127.61 11.794,110.68 3.7234,93.446 1.153,79.634 2.8797,62.787 5.1397,40.74 19.4887,15.678 34.7337,7.153 c 8.331,-4.6591 17.798,-5.8759 28.338,-3.6423 13.21,2.7993 31.292,14.353 47.238,30.187 l 8.2987,8.2387 2.0191,-1.6448 c 1.1105,-0.90467 5.9348,-5.0546 10.721,-9.2221 4.7859,-4.1675 11.664,-9.7126 15.285,-12.322 6.8582,-4.9431 19.498,-11.482 27.095,-14.017 5.5296,-1.845 17.33,-2.6558 24.077,-1.6542 17.962,2.6666 35.958,23.782 42.891,50.325 1.9169,7.3386 2.5869,20.583 1.466,28.976 -3.9779,29.783 -28.137,64.97 -65.994,96.115 -19.851,16.332 -50.871,37.547 -54.9,37.547 -0.5757,0 -8.2714,-4.8582 -17.102,-10.796 l 2e-5,0 z" />
        <path
           id="path6385"
           style="fill:#e504b8;fill-opacity:0.50980003;stroke:#000000;stroke-width:3.21860003"
           inkscape:connector-curvature="0"
           d="M 116.82,212.82 C 109.66,208.51 87.687,193.37 79.702,187.24 67.666,178 56.603,168.01 45.843,156.64 29.011,138.87 20.668,127.43 13.134,111.8 6.2692,97.556 3.7729,88.426 3.133,75.222 2.077,53.413 11.061,29.904 26.218,14.814 39.484,1.608 56.269,-0.484 75.296,8.6978 c 11.708,5.6502 20.299,11.956 34.774,25.525 l 8.7894,8.2388 5.4751,-4.7368 c 21.889,-18.937 34.372,-27.156 48.786,-32.121 5.1245,-1.7653 6.7788,-1.9692 16.361,-2.0171 l 10.66,-0.053342 6.2016,3.072 c 13.894,6.8823 25.672,22.115 32.027,41.421 4.347,13.205 4.8563,30.086 1.3179,43.68 -3.5608,13.680002 -12.299,30.225002 -24.408,46.215002 -6.763,8.9303 -23.912,26.687 -34.996,36.235 -17.959,15.471 -54.6,41.151 -58.718,41.151 -0.34146,0 -2.4765,-1.1174 -4.7446,-2.4832 l -1e-5,0 z" />
        <path
           id="path6387"
           style="fill:#e504b8;fill-opacity:0.50980003;stroke:#000000;stroke-width:3.21860003"
           inkscape:connector-curvature="0"
           d="M 118.11,212.88 C 108.55,207.4 80.285,187.35 69.827,178.63 54.246,165.63 33.858,143.77 24.07,129.57 15.632,117.32 7.536,99.293 5.126,87.38 3.7656,80.65 3.3792,69.03 4.2898,62.215 7.5023,38.173 21.2778,15.581 37.6798,7.453 c 5.5368,-2.7436 6.7415,-3.0555 13.085,-3.3873 17.724,-0.92707 34.568,7.9059 59.782,31.35 4.291,3.9898 8.0059,7.2541 8.2554,7.2541 0.24944,0 5.1328,-3.9002 10.852,-8.667 19.086,-15.908 30.826,-23.419 43.166,-27.616 4.1801,-1.4218 7.3698,-1.8719 15.859,-2.2381 l 10.626,-0.45841 4.7549,2.3856 c 10.02,5.0271 16.837,11.126 23.724,21.224 3.261,4.7817 7.7191,13.971 9.8443,20.292 4.8804,14.516 4.9246,34.799 0.10608,48.781 -11.081,32.155 -39.628,65.549 -82.686,96.724 -18.777,13.595 -31.025,21.497 -33.278,21.471 -0.40552,-0.005 -2.0541,-0.76352 -3.6634,-1.686 l 0,1e-5 z" />
        <path
           id="path6389"
           style="fill:#e504b8;fill-opacity:0.50980003;stroke:#000000;stroke-width:3.21860003"
           inkscape:connector-curvature="0"
           d="M 117.01,211.47 C 101.57,202.1 76.186,183.59 64.802,173.4 49.758,159.93 30.379,138.28 22.79,126.46 14.64,113.77 6.651,94.26 5.105,83.269 0.8642,53.111 15.789,19.358 38.447,7.862 l 5.6469,-2.865 8.8431,0.030921 c 9.8096,0.034308 14.178,1.0242 22.441,5.0852 9.9293,4.88 18.899,11.45 34.297,25.12 7.7929,6.9184 9.2872,7.9621 10.241,7.1522 5.4846,-4.6556 24.258,-19.26 28.915,-22.493 9.3741,-6.5092 17.265,-10.642 25.579,-13.397 2.6236,-0.86931 11.785,-1.7996 18.908,-1.92 l 7.023,-0.11872 6.0657,3.5188 c 7.1524,4.1492 17.043,13.645 21.662,20.796 3.863,5.9816 9.3833,18.968 10.81,25.43 2.7404,12.415 2.0118,30.588 -1.6786,41.869 -2.2916,7.005099 -10.075,22.531999 -14.954,29.831999 -13.34,19.959 -35.521,42.539 -60.248,61.331 -7.3215,5.5643 -26.236,18.798 -32.553,22.775 -6.7404,4.2442 -7.6617,4.3522 -12.436,1.4569 l 0,-2e-5 z" />
      </g>
    </g>
    <path
       id="path7211"
       d="m 133.58,685.05 c -0.87658,-0.14458 -1.7631,-6.6983 -1.2362,-9.1383 0.52694,-2.44 4.0854,-8.2601 4.962,-8.1155 0.87659,0.14458 1.7631,6.6983 1.2362,9.1383 -0.52693,2.44 -4.0854,8.2601 -4.962,8.1155 z"
       style="fill:#ff00ff;fill-opacity:0.49803999;stroke:#000000;stroke-width:0.56705999;filter:url(#filter3024)"
       inkscape:connector-curvature="0"
       transform="matrix(0.44704475,-0.08491483,0.08140809,0.46584747,358.15839,-90.012686)" />
    <use
       id="use7213"
       style="stroke:#000000"
       xlink:href="#path7211"
       transform="matrix(0.51431,-0.46286621,0.42104766,0.51431,86.743357,338.00687)"
       height="1052.3622"
       width="744.09448"
       y="0"
       x="0" />
    <use
       id="use7215"
       style="stroke:#000000"
       xlink:href="#path7211"
       transform="matrix(0.55326,0.38243212,-0.34788752,0.55326,340.33024,-72.49858)"
       height="1052.3622"
       width="744.09448"
       y="0"
       x="0" />
    <path
       id="path7217"
       d="m 419.29758,234.84645 0.17285,0.74302 c 6.36266,-2.96044 13.35682,-5.76517 20.33255,-7.89444 5.08703,-1.55302 10.2672,-2.33769 14.97743,-3.37977 11.98495,-1.00828 24.02351,-2.26808 34.80411,-1.11459 8.9347,1.02878 16.88614,2.76612 24.30325,4.88819 5.18711,1.2273 9.97741,4.01292 14.16754,5.95788 0.49539,0.22996 0.98518,-0.0624 0.48326,-0.3502 -12.76302,-7.31889 -16.81495,-7.35399 -21.40542,-8.64729 -1.58736,-0.44723 -5.76107,-1.58973 -10.65329,-2.27038 -5.61953,-0.78175 -12.1265,-1.08599 -15.73371,-1.2389 -9.42298,-0.17397 -15.15834,0.20628 -25.17428,1.40851 -2.74456,0.388 -10.16334,1.86505 -15.06201,3.38747 -6.62515,2.05917 -13.85431,4.9264 -21.21195,8.51049 z"
       sodipodi:nodetypes="ccscccssssccsc"
       style="opacity:0.5;fill:#a0892c;stroke:#000000;stroke-width:0.26303756"
       inkscape:connector-curvature="0" />
    <g
       id="g4714"
       style="stroke:#000000"
       transform="matrix(0.34250511,0,0,0.35910889,415.26072,-34.61723)">
      <path
         id="use7235"
         style="fill:#ff00ff;fill-opacity:0.49803999;stroke:#000000;stroke-width:0.71939999;filter:url(#filter3024)"
         transform="matrix(0.78579,0,0,0.79069,24.1,145.05)"
         inkscape:connector-curvature="0"
         d="m 111.26,693.5 c -1.2996,0.35649 -6.661,-8.0562 -7.4759,-11.73 -0.81479,-3.6742 0.41423,-13.894 1.7138,-14.25 1.2996,-0.3565 6.661,8.0562 7.4759,11.73 0.81481,3.6742 -0.41424,13.894 -1.7138,14.25 z" />
      <path
         id="use7239"
         style="fill:#ff00ff;fill-opacity:0.49803999;stroke:#000000;stroke-width:0.89029002;filter:url(#filter3024)"
         transform="matrix(0.63487,0,0,0.63901,41.644,253.19)"
         inkscape:connector-curvature="0"
         d="m 113.91,701.08 c -1.2171,-0.57856 0.21514,-10.451 1.997,-13.766 1.7819,-3.3149 9.3857,-10.253 10.603,-9.6743 1.2171,0.57856 -0.21514,10.451 -1.997,13.766 -1.7819,3.3149 -9.3857,10.253 -10.603,9.6743 z" />
      <path
         id="use7241"
         style="fill:#ff00ff;fill-opacity:0.49803999;stroke:#000000;stroke-width:0.86486;filter:url(#filter3024)"
         transform="matrix(0.65622,0,0,0.6551,36.477,239.53)"
         inkscape:connector-curvature="0"
         d="m 114.76,705.21 c -0.77724,1.0277 -9.7446,-2.2235 -12.504,-4.5334 -2.7593,-2.3099 -7.7848,-10.772 -7.0075,-11.8 0.77724,-1.0278 9.7446,2.2235 12.504,4.5334 2.7593,2.3099 7.7848,10.772 7.0075,11.8 z" />
    </g>
    <g
       id="g4719"
       style="stroke:#000000"
       transform="matrix(.40895 0 0 .35908 402.74 -34.592)">
      <use
         id="use7237"
         style="stroke:#000000"
         xlink:href="#path7211"
         transform="matrix(0.85367,0.17354,-0.17354,0.85367,174.63226,56.740229)"
         height="1052.3622"
         width="744.09448"
         y="0"
         x="0" />
      <use
         id="use7243"
         style="stroke:#000000"
         xlink:href="#path7211"
         transform="matrix(0.64517,-0.3552,0.3552,0.64517,-155.07346,320.65314)"
         height="1052.3622"
         width="744.09448"
         y="0"
         x="0" />
      <use
         id="use7247"
         style="stroke:#000000"
         xlink:href="#path7211"
         transform="matrix(0.57131,0.42913,-0.42913,0.57131,414.96991,209.04089)"
         height="1052.3622"
         width="744.09448"
         y="0"
         x="0" />
    </g>
    <use
       id="use3318"
       style="stroke:#000000"
       xlink:href="#g3276"
       transform="matrix(0.61047,0.1913295,-0.17404007,0.61047,257.91759,1.7701962)"
       height="1052.3622"
       width="744.09448"
       y="0"
       x="0" />
    <use
       id="use3320"
       style="stroke:#000000"
       xlink:href="#g3276"
       transform="matrix(0.70089,-0.26387064,0.24002321,0.70089,55.782881,199.50815)"
       height="1052.3622"
       width="744.09448"
       y="0"
       x="0" />
    <g
       id="g9160"
       style="stroke:#000000;filter:url(#filter9164)"
       transform="matrix(0.39156721,-0.00573276,0.00546769,0.41055302,416.71801,-62.854501)">
      <rect
         id="rect7642"
         style="fill:url(#radialGradient4753);stroke:#000000;stroke-width:0.65596002;stroke-linejoin:round"
         transform="matrix(0.6849,0.72864,-0.72621,0.68747,0,0)"
         rx="0.54193997"
         ry="0.36905"
         height="16.146"
         width="16.257999"
         y="380.39999"
         x="602.07001" />
      <rect
         id="rect7684"
         ry="0.33399001"
         style="opacity:0.75;fill:url(#radialGradient4755);stroke:#000000;stroke-width:0.65596002"
         rx="0.49046999"
         transform="matrix(0.68489,0.72864,-0.72621,0.68747,0,0)"
         height="14.612"
         width="14.714"
         y="381.16"
         x="602.79999" />
    </g>
    <use
       id="use9194"
       style="stroke:#000000"
       xlink:href="#g9160"
       inkscape:transform-center-x="-7.6225681"
       inkscape:transform-center-y="1.9417262"
       transform="matrix(0.78967,0.18008114,-0.16381473,0.78967,160.57256,-36.523048)"
       height="1052.3622"
       width="744.09448"
       y="0"
       x="0" />
    <use
       id="use9196"
       style="stroke:#000000"
       xlink:href="#g9160"
       transform="matrix(0.84319,-0.27609815,0.25116137,0.84319,-6.6511058,167.95194)"
       height="1052.3622"
       width="744.09448"
       y="0"
       x="0" />
    <use
       id="use3342"
       style="stroke:#000000"
       xlink:href="#g9160"
       transform="matrix(0.61527,0.33409524,-0.30391271,0.61527,299.41664,-63.474585)"
       height="1052.3622"
       width="744.09448"
       y="0"
       x="0" />
    <use
       id="use3344"
       style="stroke:#000000"
       xlink:href="#use3342"
       transform="matrix(0.84523,-0.56030419,0.50968398,0.84523,-134.83315,330.01899)"
       height="1052.3622"
       width="744.09448"
       y="0"
       x="0" />
    <path
       id="path5429"
       sodipodi:nodetypes="cc"
       style="stroke:#000000;stroke-width:.39088px;fill:none"
       inkscape:connector-curvature="0"
       d="m276.67 431.96c17.437 25.229 52.634-5.3463 59.895-10.614" />
    <path
       id="path5429-3"
       sodipodi:nodetypes="cc"
       style="opacity:0.96901999;fill:none;stroke:#000000;stroke-width:0.3774192px"
       inkscape:connector-curvature="0"
       d="m 288.45133,362.87674 c 15.81663,35.9369 47.26311,12.47701 64.50269,-0.0965" />
    <path
       id="path5429-1"
       sodipodi:nodetypes="cc"
       style="opacity:0.96901999;fill:none;stroke:#000000;stroke-width:0.35773325px"
       inkscape:connector-curvature="0"
       d="m 342.65583,229.346 c 9.16753,28.65131 43.88454,7.30899 50.83934,3.91592" />
    <path
       id="path5429-1-9"
       sodipodi:nodetypes="cc"
       style="opacity:.96902;stroke:#000000;stroke-width:.39088px;fill:none"
       inkscape:connector-curvature="0"
       d="m651.41 246.25c-10.18-28.93-52.185-8.6995-60.576-5.5287" />
    <path
       id="path5429-1-9-8"
       sodipodi:nodetypes="cc"
       style="opacity:.96902;stroke:#000000;stroke-width:.37139px;fill:none"
       inkscape:connector-curvature="0"
       d="m538.03 367.88c-13.834 19.813 45.584 27.452 56.727 29.44" />
    <path
       id="path5429-1-9-8-6"
       sodipodi:nodetypes="cssssc"
       style="opacity:0.96901999;fill:none;stroke:#000000;stroke-width:0.13044px;filter:url(#filter5571)"
       inkscape:connector-curvature="0"
       d="m 394.76,299.23 c -8.7327,-1.909 -6.9832,15.135 -5.0468,20.611 0.60474,1.71 4.4654,13.349 11.368,13.879 0.66345,0.0509 3.2703,-0.8221 1.9867,-7.4864 -0.83933,-4.3577 -6.72,-1.7176 -7.0365,-7.2871 -0.10592,-1.8638 0.39599,-4.2218 6.0785,-2.4568"
       transform="matrix(0.83752318,0,0,1.0000804,77.956629,-0.02244714)" />
    <path
       id="path5429-1-9-8-6-5"
       style="opacity:0.96901999;fill:none;stroke:#000000;stroke-width:0.134;filter:url(#filter5567)"
       d="m 555.15,296.62 c 9.1826,-1.909 7.343,15.135 5.3069,20.611 -0.63589,1.71 -4.6954,13.349 -11.954,13.879 -0.69763,0.0509 -3.4388,-0.8221 -2.0891,-7.4864 0.88257,-4.3577 7.0662,-1.7176 7.399,-7.2871 0.11138,-1.8638 -0.41639,-4.2218 -6.3917,-2.4568"
       sodipodi:nodetypes="cssssc"
       inkscape:connector-curvature="0"
       transform="matrix(0.82731378,-0.15569252,0.13038561,0.98788947,42.700254,90.0718)" />
    <path
       id="path5840"
       sodipodi:rx="5.3033009"
       sodipodi:ry="5.5558391"
       style="fill:url(#radialGradient4747);stroke:#000000;stroke-width:0.13372;filter:url(#filter5884)"
       sodipodi:type="arc"
       d="m 361.6346,88.162247 a 5.3033009,5.5558391 0 0 1 -5.29959,5.555837 5.3033009,5.5558391 0 0 1 -5.30701,-5.548057 5.3033009,5.5558391 0 0 1 5.29216,-5.563607 5.3033009,5.5558391 0 0 1 5.31442,5.540266"
       sodipodi:open="true"
       transform="matrix(1.0174232,0,0,1.1347913,170.32706,118.6871)"
       sodipodi:cy="88.162247"
       sodipodi:cx="356.3313"
       sodipodi:end="6.2803845"
       sodipodi:start="0" />
    <path
       id="path5840-9"
       sodipodi:rx="5.3033009"
       sodipodi:ry="5.5558391"
       style="opacity:0.96901999;fill:url(#radialGradient4745);stroke:#000000;stroke-width:0.13372;filter:url(#filter5884-8)"
       sodipodi:type="arc"
       d="m 361.6346,88.162247 a 5.3033009,5.5558391 0 0 1 -5.29959,5.555837 5.3033009,5.5558391 0 0 1 -5.30701,-5.548057 5.3033009,5.5558391 0 0 1 5.29216,-5.563607 5.3033009,5.5558391 0 0 1 5.31442,5.540266"
       sodipodi:open="true"
       transform="matrix(1.0174232,0,0,1.1347913,51.423057,121.73735)"
       sodipodi:cy="88.162247"
       sodipodi:cx="356.3313"
       sodipodi:end="6.2803845"
       sodipodi:start="0" />
    <path
       id="path5840-9-1"
       sodipodi:rx="5.3033009"
       sodipodi:ry="5.5558391"
       style="opacity:0.96901999;fill:url(#radialGradient4743);stroke:#000000;stroke-width:0.13372;filter:url(#filter5884-8-6)"
       sodipodi:type="arc"
       d="m 361.6346,88.162247 a 5.3033009,5.5558391 0 0 1 -5.29959,5.555837 5.3033009,5.5558391 0 0 1 -5.30701,-5.548057 5.3033009,5.5558391 0 0 1 5.29216,-5.563607 5.3033009,5.5558391 0 0 1 5.31442,5.540266"
       sodipodi:open="true"
       transform="matrix(1.0174232,0,0,1.1347913,87.017793,96.66533)"
       sodipodi:cy="88.162247"
       sodipodi:cx="356.3313"
       sodipodi:end="6.2803845"
       sodipodi:start="0" />
    <path
       id="path5840-9-6"
       sodipodi:rx="5.3033009"
       sodipodi:ry="5.5558391"
       style="opacity:0.96901999;fill:url(#radialGradient4741);stroke:#000000;stroke-width:0.13372;filter:url(#filter5884-8-0)"
       sodipodi:type="arc"
       d="m 361.6346,88.162247 a 5.3033009,5.5558391 0 0 1 -5.29959,5.555837 5.3033009,5.5558391 0 0 1 -5.30701,-5.548057 5.3033009,5.5558391 0 0 1 5.29216,-5.563607 5.3033009,5.5558391 0 0 1 5.31442,5.540266"
       sodipodi:open="true"
       transform="matrix(1.0174232,0,0,1.1347913,134.81608,96.022279)"
       sodipodi:cy="88.162247"
       sodipodi:cx="356.3313"
       sodipodi:end="6.2803845"
       sodipodi:start="0" />
    <path
       id="path5840-9-8"
       sodipodi:rx="5.3033009"
       sodipodi:ry="5.5558391"
       style="opacity:0.96901999;fill:url(#radialGradient4739);stroke:#000000;stroke-width:0.13372;filter:url(#filter5884-8-5)"
       sodipodi:type="arc"
       d="m 361.6346,88.162247 a 5.3033009,5.5558391 0 0 1 -5.29959,5.555837 5.3033009,5.5558391 0 0 1 -5.30701,-5.548057 5.3033009,5.5558391 0 0 1 5.29216,-5.563607 5.3033009,5.5558391 0 0 1 5.31442,5.540266"
       sodipodi:open="true"
       transform="matrix(1.0174232,0,0,1.1347913,51.661752,233.96637)"
       sodipodi:cy="88.162247"
       sodipodi:cx="356.3313"
       sodipodi:end="6.2803845"
       sodipodi:start="0" />
    <path
       id="path5840-9-12"
       sodipodi:rx="5.3033009"
       sodipodi:ry="5.5558391"
       style="opacity:0.96901999;fill:url(#radialGradient4737);stroke:#000000;stroke-width:0.13372;filter:url(#filter5884-8-3)"
       sodipodi:type="arc"
       d="m 361.6346,88.162247 a 5.3033009,5.5558391 0 0 1 -5.29959,5.555837 5.3033009,5.5558391 0 0 1 -5.30701,-5.548057 5.3033009,5.5558391 0 0 1 5.29216,-5.563607 5.3033009,5.5558391 0 0 1 5.31442,5.540266"
       sodipodi:open="true"
       transform="matrix(1.0174232,0,0,1.1347913,178.19141,231.7462)"
       sodipodi:cy="88.162247"
       sodipodi:cx="356.3313"
       sodipodi:end="6.2803845"
       sodipodi:start="0" />
  </g>
  <metadata
     id="metadata4615">
    <rdf:RDF>
      <cc:Work>
        <dc:format>image/svg+xml</dc:format>
        <dc:type
           rdf:resource="http://purl.org/dc/dcmitype/StillImage" />
        <cc:license
           rdf:resource="http://creativecommons.org/licenses/publicdomain/" />
        <dc:publisher>
          <cc:Agent
             rdf:about="http://openclipart.org/">
            <dc:title>Openclipart</dc:title>
          </cc:Agent>
        </dc:publisher>
        <dc:title>Prinzessin</dc:title>
        <dc:date>2011-12-28T10:56:09</dc:date>
        <dc:description />
        <dc:source>https://openclipart.org/detail/166659/prinzessin-by-doppelg</dc:source>
        <dc:creator>
          <cc:Agent>
            <dc:title>DoppelG</dc:title>
          </cc:Agent>
        </dc:creator>
        <dc:subject>
          <rdf:Bag>
            <rdf:li>princess</rdf:li>
          </rdf:Bag>
        </dc:subject>
      </cc:Work>
      <cc:License
         rdf:about="http://creativecommons.org/licenses/publicdomain/">
        <cc:permits
           rdf:resource="http://creativecommons.org/ns#Reproduction" />
        <cc:permits
           rdf:resource="http://creativecommons.org/ns#Distribution" />
        <cc:permits
           rdf:resource="http://creativecommons.org/ns#DerivativeWorks" />
      </cc:License>
    </rdf:RDF>
  </metadata>
</svg>
